<svg xmlns="http://www.w3.org/2000/svg" xmlns:xlink="http://www.w3.org/1999/xlink" width="300" zoomAndPan="magnify" viewBox="0 0 224.87999 225" height="300" preserveAspectRatio="xMidYMid meet" version="1.0"><defs><clipPath id="675ffff6c2"><path d="M 0 94.574219 L 224.761719 94.574219 L 224.761719 224.9375 L 0 224.9375 Z M 0 94.574219 " clip-rule="nonzero"/></clipPath><clipPath id="28c43d36a0"><path d="M 75 221.699219 C 86.53125 223.65625 99.636719 224.941406 112.5 224.941406 C 125.363281 224.941406 137.742188 223.839844 149.152344 221.882812 C 149.394531 221.820312 149.636719 221.820312 149.878906 221.761719 C 192.71875 213.933594 224.273438 193.273438 224.878906 169.292969 L 224.878906 94.574219 L 0 94.574219 L 0 169.238281 C 0.605469 193.394531 31.675781 214.058594 75 221.699219 Z M 75 221.699219 " clip-rule="nonzero"/></clipPath><clipPath id="ad86142a6e"><path d="M 106 0.0585938 L 118 0.0585938 L 118 71 L 106 71 Z M 106 0.0585938 " clip-rule="nonzero"/></clipPath></defs><g clip-path="url(#675ffff6c2)"><g clip-path="url(#28c43d36a0)"><path fill="#a03794" d="M 0 94.574219 L 225.082031 94.574219 L 225.082031 224.941406 L 0 224.941406 Z M 0 94.574219 " fill-opacity="1" fill-rule="nonzero"/></g></g><g clip-path="url(#ad86142a6e)"><path stroke-linecap="butt" transform="matrix(0, 5.461442, -5.461442, 0, 117.87677, 0.0846769)" fill="none" stroke-linejoin="miter" d="M 0.00023081 1.000232 L 11.806007 1.000232 " stroke="#a03794" stroke-width="2" stroke-opacity="1" stroke-miterlimit="4"/></g><path stroke-linecap="round" transform="matrix(0, 5.461442, -5.461442, 0, 117.87677, 0.0846769)" fill-opacity="1" fill="#a03794" fill-rule="nonzero" stroke-linejoin="round" d="M 12.305961 -2.000206 L 16.305591 1.000232 L 12.305961 3.999955 Z M 12.305961 -2.000206 " stroke="#a03794" stroke-width="2" stroke-opacity="1" stroke-miterlimit="4"/></svg>