<svg xmlns="http://www.w3.org/2000/svg" xmlns:xlink="http://www.w3.org/1999/xlink" width="300" zoomAndPan="magnify" viewBox="0 0 224.87999 225" height="300" preserveAspectRatio="xMidYMid meet" version="1.0"><defs><clipPath id="d79bca11cd"><path d="M 48.636719 36.25 L 224.761719 36.25 L 224.761719 224.9375 L 48.636719 224.9375 Z M 48.636719 36.25 " clip-rule="nonzero"/></clipPath><clipPath id="5062f084f8"><path d="M 107.414062 221.535156 C 116.453125 223.589844 126.722656 224.941406 136.804688 224.941406 C 146.886719 224.941406 156.589844 223.78125 165.53125 221.726562 C 165.71875 221.660156 165.910156 221.660156 166.101562 221.597656 C 199.675781 213.371094 224.40625 191.644531 224.878906 165.292969 L 224.878906 36.25 L 48.636719 36.25 L 48.636719 165.195312 C 49.113281 191.773438 73.460938 213.5 107.414062 221.535156 Z M 107.414062 221.535156 " clip-rule="nonzero"/></clipPath><clipPath id="9374a4d5b2"><path d="M 0 0.0585938 L 176.242188 0.0585938 L 176.242188 189 L 0 189 Z M 0 0.0585938 " clip-rule="nonzero"/></clipPath><clipPath id="f89552d0f3"><path d="M 58.78125 185.34375 C 67.816406 187.402344 78.085938 188.75 88.167969 188.75 C 98.25 188.75 107.953125 187.59375 116.894531 185.535156 C 117.082031 185.472656 117.273438 185.472656 117.464844 185.410156 C 151.039062 177.179688 175.769531 155.457031 176.242188 129.101562 L 176.242188 0.0585938 L 0 0.0585938 L 0 129.007812 C 0.476562 155.585938 24.824219 177.308594 58.78125 185.34375 Z M 58.78125 185.34375 " clip-rule="nonzero"/></clipPath></defs><g clip-path="url(#d79bca11cd)"><g clip-path="url(#5062f084f8)"><path fill="#a03794" d="M 48.636719 36.25 L 224.878906 36.25 L 224.878906 224.886719 L 48.636719 224.886719 Z M 48.636719 36.25 " fill-opacity="1" fill-rule="nonzero"/></g></g><g clip-path="url(#9374a4d5b2)"><g clip-path="url(#f89552d0f3)"><path fill="#a03794" d="M 0 0.0585938 L 176.242188 0.0585938 L 176.242188 188.695312 L 0 188.695312 Z M 0 0.0585938 " fill-opacity="1" fill-rule="nonzero"/></g></g></svg>