<svg xmlns="http://www.w3.org/2000/svg" xmlns:xlink="http://www.w3.org/1999/xlink" width="300" zoomAndPan="magnify" viewBox="0 0 224.87999 225" height="300" preserveAspectRatio="xMidYMid meet" version="1.0"><defs><clipPath id="e0444402a9"><path d="M 0 14.613281 L 224.761719 14.613281 L 224.761719 210.386719 L 0 210.386719 Z M 0 14.613281 " clip-rule="nonzero"/></clipPath><clipPath id="555d624288"><path d="M 127.683594 14.613281 C 130.148438 14.613281 132.628906 14.613281 135.089844 14.613281 C 154.71875 17.882812 166.984375 28.769531 172.570312 46.578125 C 205.292969 44.203125 228.15625 77.878906 214.582031 110.929688 C 219.40625 117.875 223.425781 125.644531 224.878906 136.074219 C 224.878906 139.058594 224.878906 142.039062 224.878906 145.027344 C 220.550781 171.5625 201.921875 189.496094 171.34375 184.667969 C 163.472656 198.296875 149.472656 211.300781 127.6875 210.242188 C 116.425781 209.347656 108.589844 204.164062 101.730469 197.871094 C 94.507812 203.101562 86.683594 207.210938 75.378906 207.253906 C 49.222656 207.332031 31.726562 187.171875 31.300781 159.519531 C 14.488281 153.050781 3.101562 140.976562 0 120.316406 C 0 117.328125 0 114.335938 0 111.363281 C 3.421875 90.886719 14.191406 78.027344 32.121094 72.574219 C 31.042969 38.039062 66.910156 16.457031 96.375 31.671875 C 103.390625 24.148438 113.316406 15.941406 127.683594 14.613281 Z M 127.683594 14.613281 " clip-rule="nonzero"/></clipPath></defs><g clip-path="url(#e0444402a9)"><g clip-path="url(#555d624288)"><path fill="#a03794" d="M 0 14.613281 L 224.832031 14.613281 L 224.832031 210.386719 L 0 210.386719 Z M 0 14.613281 " fill-opacity="1" fill-rule="nonzero"/></g></g></svg>