<svg xmlns="http://www.w3.org/2000/svg" xmlns:xlink="http://www.w3.org/1999/xlink" width="300" zoomAndPan="magnify" viewBox="0 0 224.87999 225" height="300" preserveAspectRatio="xMidYMid meet" version="1.0"><defs><clipPath id="d4a689c7a6"><path d="M 0 0.0585938 L 224.761719 0.0585938 L 224.761719 224.9375 L 0 224.9375 Z M 0 0.0585938 " clip-rule="nonzero"/></clipPath></defs><g clip-path="url(#d4a689c7a6)"><path fill="#f3f4f4" d="M 111.621094 217.023438 C 113.332031 218.734375 113.332031 221.511719 111.621094 223.226562 C 109.90625 224.941406 107.128906 224.941406 105.414062 223.226562 C 103.703125 221.511719 103.703125 218.734375 105.414062 217.023438 C 107.128906 215.308594 109.90625 215.308594 111.621094 217.023438 Z M 104.890625 210.488281 C 103.230469 208.828125 100.539062 208.828125 98.878906 210.488281 C 97.21875 212.148438 97.21875 214.839844 98.878906 216.5 C 100.539062 218.160156 103.230469 218.160156 104.890625 216.5 C 106.550781 214.839844 106.550781 212.148438 104.890625 210.488281 Z M 98.164062 203.953125 C 96.554688 202.347656 93.953125 202.347656 92.347656 203.953125 C 90.738281 205.558594 90.738281 208.164062 92.347656 209.769531 C 93.953125 211.375 96.554688 211.375 98.164062 209.769531 C 99.769531 208.164062 99.769531 205.558594 98.164062 203.953125 Z M 91.433594 197.417969 C 89.882812 195.867188 87.363281 195.867188 85.8125 197.417969 C 84.257812 198.972656 84.257812 201.488281 85.8125 203.042969 C 87.363281 204.59375 89.882812 204.59375 91.433594 203.042969 C 92.988281 201.488281 92.988281 198.972656 91.433594 197.417969 Z M 84.707031 190.882812 C 83.207031 189.382812 80.777344 189.382812 79.277344 190.882812 C 77.777344 192.382812 77.777344 194.8125 79.277344 196.3125 C 80.777344 197.8125 83.207031 197.8125 84.707031 196.3125 C 86.203125 194.8125 86.203125 192.382812 84.707031 190.882812 Z M 77.976562 184.347656 C 76.53125 182.902344 74.1875 182.902344 72.742188 184.347656 C 71.296875 185.792969 71.296875 188.136719 72.742188 189.582031 C 74.1875 191.03125 76.53125 191.03125 77.976562 189.582031 C 79.421875 188.136719 79.421875 185.792969 77.976562 184.347656 Z M 71.25 177.8125 C 69.855469 176.421875 67.597656 176.421875 66.207031 177.8125 C 64.816406 179.207031 64.816406 181.464844 66.207031 182.855469 C 67.597656 184.246094 69.855469 184.246094 71.25 182.855469 C 72.640625 181.464844 72.640625 179.207031 71.25 177.8125 Z M 64.519531 171.277344 C 63.179688 169.941406 61.011719 169.941406 59.671875 171.277344 C 58.332031 172.617188 58.332031 174.789062 59.671875 176.125 C 61.011719 177.464844 63.179688 177.464844 64.519531 176.125 C 65.859375 174.789062 65.859375 172.617188 64.519531 171.277344 Z M 57.789062 164.746094 C 56.507812 163.460938 54.421875 163.460938 53.136719 164.746094 C 51.851562 166.03125 51.851562 168.113281 53.136719 169.398438 C 54.421875 170.683594 56.507812 170.683594 57.789062 169.398438 C 59.074219 168.113281 59.074219 166.03125 57.789062 164.746094 Z M 46.601562 158.210938 C 45.371094 159.441406 45.371094 161.4375 46.601562 162.667969 C 47.835938 163.902344 49.832031 163.902344 51.0625 162.667969 C 52.292969 161.4375 52.292969 159.441406 51.0625 158.210938 C 49.832031 156.976562 47.835938 156.976562 46.601562 158.210938 Z M 40.066406 151.675781 C 38.890625 152.851562 38.890625 154.761719 40.066406 155.941406 C 41.246094 157.117188 43.15625 157.117188 44.332031 155.941406 C 45.511719 154.761719 45.511719 152.851562 44.332031 151.675781 C 43.15625 150.496094 41.246094 150.496094 40.066406 151.675781 Z M 33.53125 145.140625 C 32.410156 146.265625 32.410156 148.085938 33.53125 149.210938 C 34.65625 150.335938 36.480469 150.335938 37.605469 149.210938 C 38.730469 148.085938 38.730469 146.265625 37.605469 145.140625 C 36.480469 144.015625 34.65625 144.015625 33.53125 145.140625 Z M 27 138.605469 C 25.925781 139.675781 25.925781 141.414062 27 142.484375 C 28.070312 143.554688 29.804688 143.554688 30.875 142.484375 C 31.949219 141.414062 31.949219 139.675781 30.875 138.605469 C 29.804688 137.535156 28.070312 137.535156 27 138.605469 Z M 20.464844 132.070312 C 19.445312 133.089844 19.445312 134.738281 20.464844 135.753906 C 21.480469 136.773438 23.128906 136.773438 24.148438 135.753906 C 25.164062 134.738281 25.164062 133.089844 24.148438 132.070312 C 23.128906 131.054688 21.480469 131.054688 20.464844 132.070312 Z M 13.929688 125.535156 C 12.964844 126.5 12.964844 128.0625 13.929688 129.027344 C 14.894531 129.988281 16.457031 129.988281 17.417969 129.027344 C 18.382812 128.0625 18.382812 126.5 17.417969 125.535156 C 16.457031 124.570312 14.894531 124.570312 13.929688 125.535156 Z M 7.394531 119 C 6.484375 119.910156 6.484375 121.386719 7.394531 122.296875 C 8.304688 123.207031 9.78125 123.207031 10.691406 122.296875 C 11.601562 121.386719 11.601562 119.910156 10.691406 119 C 9.78125 118.089844 8.304688 118.089844 7.394531 119 Z M 0.859375 112.464844 C 0.00390625 113.324219 0.00390625 114.710938 0.859375 115.570312 C 1.714844 116.425781 3.105469 116.425781 3.960938 115.570312 C 4.820312 114.710938 4.820312 113.324219 3.960938 112.464844 C 3.105469 111.609375 1.714844 111.609375 0.859375 112.464844 Z M 112.386719 210.050781 C 110.671875 211.765625 110.671875 214.542969 112.386719 216.253906 C 114.101562 217.96875 116.878906 217.96875 118.589844 216.253906 C 120.304688 214.542969 120.304688 211.765625 118.589844 210.050781 C 116.878906 208.335938 114.101562 208.335938 112.386719 210.050781 Z M 111.863281 209.527344 C 113.523438 207.867188 113.523438 205.175781 111.863281 203.515625 C 110.203125 201.855469 107.511719 201.855469 105.851562 203.515625 C 104.191406 205.175781 104.191406 207.867188 105.851562 209.527344 C 107.511719 211.1875 110.203125 211.1875 111.863281 209.527344 Z M 105.132812 202.796875 C 106.742188 201.191406 106.742188 198.585938 105.132812 196.980469 C 103.527344 195.375 100.921875 195.375 99.316406 196.980469 C 97.710938 198.585938 97.710938 201.191406 99.316406 202.796875 C 100.921875 204.40625 103.527344 204.40625 105.132812 202.796875 Z M 98.40625 196.070312 C 99.957031 194.515625 99.957031 192 98.40625 190.445312 C 96.851562 188.894531 94.335938 188.894531 92.78125 190.445312 C 91.230469 192 91.230469 194.515625 92.78125 196.070312 C 94.335938 197.621094 96.851562 197.621094 98.40625 196.070312 Z M 91.675781 189.339844 C 93.175781 187.839844 93.175781 185.410156 91.675781 183.910156 C 90.179688 182.414062 87.746094 182.414062 86.246094 183.910156 C 84.75 185.410156 84.75 187.839844 86.246094 189.339844 C 87.746094 190.839844 90.179688 190.839844 91.675781 189.339844 Z M 84.949219 182.613281 C 86.394531 181.167969 86.394531 178.824219 84.949219 177.378906 C 83.503906 175.929688 81.160156 175.929688 79.714844 177.378906 C 78.265625 178.824219 78.265625 181.167969 79.714844 182.613281 C 81.160156 184.058594 83.503906 184.058594 84.949219 182.613281 Z M 78.21875 175.882812 C 79.613281 174.492188 79.613281 172.234375 78.21875 170.84375 C 76.828125 169.449219 74.570312 169.449219 73.179688 170.84375 C 71.785156 172.234375 71.785156 174.492188 73.179688 175.882812 C 74.570312 177.277344 76.828125 177.277344 78.21875 175.882812 Z M 71.492188 169.15625 C 72.828125 167.816406 72.828125 165.644531 71.492188 164.308594 C 70.152344 162.96875 67.980469 162.96875 66.644531 164.308594 C 65.304688 165.644531 65.304688 167.816406 66.644531 169.15625 C 67.980469 170.492188 70.152344 170.492188 71.492188 169.15625 Z M 64.761719 162.425781 C 66.046875 161.140625 66.046875 159.058594 64.761719 157.773438 C 63.476562 156.488281 61.394531 156.488281 60.109375 157.773438 C 58.824219 159.058594 58.824219 161.140625 60.109375 162.425781 C 61.394531 163.710938 63.476562 163.710938 64.761719 162.425781 Z M 53.574219 151.238281 C 52.34375 152.46875 52.34375 154.464844 53.574219 155.699219 C 54.804688 156.929688 56.800781 156.929688 58.035156 155.699219 C 59.265625 154.464844 59.265625 152.46875 58.035156 151.238281 C 56.800781 150.007812 54.804688 150.007812 53.574219 151.238281 Z M 47.039062 144.703125 C 45.863281 145.882812 45.863281 147.792969 47.039062 148.96875 C 48.21875 150.148438 50.128906 150.148438 51.304688 148.96875 C 52.484375 147.792969 52.484375 145.882812 51.304688 144.703125 C 50.128906 143.527344 48.21875 143.527344 47.039062 144.703125 Z M 40.503906 138.167969 C 39.378906 139.292969 39.378906 141.117188 40.503906 142.242188 C 41.628906 143.363281 43.453125 143.363281 44.578125 142.242188 C 45.699219 141.117188 45.699219 139.292969 44.578125 138.167969 C 43.453125 137.042969 41.628906 137.042969 40.503906 138.167969 Z M 33.96875 131.632812 C 32.898438 132.703125 32.898438 134.441406 33.96875 135.511719 C 35.039062 136.582031 36.777344 136.582031 37.847656 135.511719 C 38.917969 134.441406 38.917969 132.703125 37.847656 131.632812 C 36.777344 130.5625 35.039062 130.5625 33.96875 131.632812 Z M 27.433594 125.097656 C 26.417969 126.117188 26.417969 127.765625 27.433594 128.785156 C 28.453125 129.800781 30.101562 129.800781 31.121094 128.785156 C 32.136719 127.765625 32.136719 126.117188 31.121094 125.097656 C 30.101562 124.082031 28.453125 124.082031 27.433594 125.097656 Z M 20.902344 118.566406 C 19.9375 119.527344 19.9375 121.089844 20.902344 122.054688 C 21.863281 123.019531 23.425781 123.019531 24.390625 122.054688 C 25.355469 121.089844 25.355469 119.527344 24.390625 118.566406 C 23.425781 117.601562 21.863281 117.601562 20.902344 118.566406 Z M 14.367188 112.03125 C 13.457031 112.941406 13.457031 114.414062 14.367188 115.324219 C 15.277344 116.234375 16.75 116.234375 17.660156 115.324219 C 18.574219 114.414062 18.574219 112.941406 17.660156 112.03125 C 16.75 111.121094 15.277344 111.121094 14.367188 112.03125 Z M 7.832031 105.496094 C 6.972656 106.351562 6.972656 107.742188 7.832031 108.597656 C 8.6875 109.453125 10.078125 109.453125 10.933594 108.597656 C 11.789062 107.742188 11.789062 106.351562 10.933594 105.496094 C 10.078125 104.636719 8.6875 104.636719 7.832031 105.496094 Z M 119.359375 203.078125 C 117.644531 204.792969 117.644531 207.570312 119.359375 209.285156 C 121.070312 210.996094 123.851562 210.996094 125.5625 209.285156 C 127.277344 207.570312 127.277344 204.792969 125.5625 203.078125 C 123.851562 201.367188 121.070312 201.367188 119.359375 203.078125 Z M 118.835938 202.554688 C 120.496094 200.894531 120.496094 198.203125 118.835938 196.542969 C 117.175781 194.882812 114.484375 194.882812 112.824219 196.542969 C 111.164062 198.203125 111.164062 200.894531 112.824219 202.554688 C 114.484375 204.214844 117.175781 204.214844 118.835938 202.554688 Z M 112.105469 195.828125 C 113.710938 194.21875 113.710938 191.617188 112.105469 190.007812 C 110.5 188.402344 107.894531 188.402344 106.289062 190.007812 C 104.683594 191.617188 104.683594 194.21875 106.289062 195.828125 C 107.894531 197.433594 110.5 197.433594 112.105469 195.828125 Z M 105.378906 189.097656 C 106.929688 187.546875 106.929688 185.027344 105.378906 183.476562 C 103.824219 181.921875 101.308594 181.921875 99.753906 183.476562 C 98.203125 185.027344 98.203125 187.546875 99.753906 189.097656 C 101.308594 190.652344 103.824219 190.652344 105.378906 189.097656 Z M 98.648438 182.371094 C 100.148438 180.871094 100.148438 178.441406 98.648438 176.941406 C 97.148438 175.441406 94.71875 175.441406 93.21875 176.941406 C 91.71875 178.441406 91.71875 180.871094 93.21875 182.371094 C 94.71875 183.867188 97.148438 183.867188 98.648438 182.371094 Z M 91.921875 175.640625 C 93.367188 174.195312 93.367188 171.851562 91.921875 170.40625 C 90.472656 168.960938 88.128906 168.960938 86.683594 170.40625 C 85.238281 171.851562 85.238281 174.195312 86.683594 175.640625 C 88.128906 177.085938 90.472656 177.085938 91.921875 175.640625 Z M 85.191406 168.914062 C 86.582031 167.519531 86.582031 165.261719 85.191406 163.871094 C 83.800781 162.480469 81.542969 162.480469 80.148438 163.871094 C 78.757812 165.261719 78.757812 167.519531 80.148438 168.914062 C 81.542969 170.304688 83.800781 170.304688 85.191406 168.914062 Z M 73.613281 157.335938 C 72.277344 158.675781 72.277344 160.84375 73.613281 162.183594 C 74.953125 163.523438 77.125 163.523438 78.460938 162.183594 C 79.800781 160.84375 79.800781 158.675781 78.460938 157.335938 C 77.125 155.996094 74.953125 155.996094 73.613281 157.335938 Z M 67.082031 155.453125 C 68.367188 156.738281 70.449219 156.738281 71.734375 155.453125 C 73.019531 154.167969 73.019531 152.085938 71.734375 150.800781 C 70.449219 149.515625 68.367188 149.515625 67.082031 150.800781 C 65.796875 152.085938 65.796875 154.167969 67.082031 155.453125 Z M 60.546875 148.726562 C 61.777344 149.957031 63.773438 149.957031 65.003906 148.726562 C 66.238281 147.496094 66.238281 145.5 65.003906 144.265625 C 63.773438 143.035156 61.777344 143.035156 60.546875 144.265625 C 59.3125 145.5 59.3125 147.496094 60.546875 148.726562 Z M 58.277344 137.730469 C 57.097656 136.554688 55.1875 136.554688 54.011719 137.730469 C 52.832031 138.910156 52.832031 140.820312 54.011719 141.996094 C 55.1875 143.175781 57.097656 143.175781 58.277344 141.996094 C 59.453125 140.820312 59.453125 138.910156 58.277344 137.730469 Z M 51.546875 135.269531 C 52.671875 134.144531 52.671875 132.320312 51.546875 131.195312 C 50.421875 130.074219 48.601562 130.074219 47.476562 131.195312 C 46.351562 132.320312 46.351562 134.144531 47.476562 135.269531 C 48.601562 136.394531 50.421875 136.394531 51.546875 135.269531 Z M 40.941406 124.664062 C 39.871094 125.734375 39.871094 127.46875 40.941406 128.539062 C 42.011719 129.609375 43.75 129.609375 44.820312 128.539062 C 45.890625 127.46875 45.890625 125.734375 44.820312 124.664062 C 43.75 123.589844 42.011719 123.589844 40.941406 124.664062 Z M 34.40625 118.128906 C 33.390625 119.144531 33.390625 120.792969 34.40625 121.8125 C 35.425781 122.828125 37.074219 122.828125 38.089844 121.8125 C 39.109375 120.792969 39.109375 119.144531 38.089844 118.128906 C 37.074219 117.109375 35.425781 117.109375 34.40625 118.128906 Z M 27.871094 111.59375 C 26.910156 112.558594 26.910156 114.121094 27.871094 115.082031 C 28.835938 116.046875 30.398438 116.046875 31.363281 115.082031 C 32.324219 114.121094 32.324219 112.558594 31.363281 111.59375 C 30.398438 110.628906 28.835938 110.628906 27.871094 111.59375 Z M 21.335938 105.058594 C 20.425781 105.96875 20.425781 107.445312 21.335938 108.355469 C 22.246094 109.265625 23.722656 109.265625 24.632812 108.355469 C 25.542969 107.445312 25.542969 105.96875 24.632812 105.058594 C 23.722656 104.148438 22.246094 104.148438 21.335938 105.058594 Z M 14.800781 98.523438 C 13.945312 99.378906 13.945312 100.769531 14.800781 101.625 C 15.660156 102.484375 17.046875 102.484375 17.90625 101.625 C 18.761719 100.769531 18.761719 99.378906 17.90625 98.523438 C 17.046875 97.667969 15.660156 97.667969 14.800781 98.523438 Z M 126.328125 196.109375 C 124.617188 197.820312 124.617188 200.597656 126.328125 202.3125 C 128.042969 204.027344 130.820312 204.027344 132.535156 202.3125 C 134.25 200.597656 134.25 197.820312 132.535156 196.109375 C 130.820312 194.394531 128.042969 194.394531 126.328125 196.109375 Z M 125.804688 195.582031 C 127.464844 193.925781 127.464844 191.234375 125.804688 189.574219 C 124.144531 187.914062 121.453125 187.914062 119.796875 189.574219 C 118.136719 191.234375 118.136719 193.925781 119.796875 195.582031 C 121.453125 197.242188 124.144531 197.242188 125.804688 195.582031 Z M 119.078125 188.855469 C 120.683594 187.25 120.683594 184.644531 119.078125 183.039062 C 117.472656 181.433594 114.867188 181.433594 113.261719 183.039062 C 111.652344 184.644531 111.652344 187.25 113.261719 188.855469 C 114.867188 190.460938 117.472656 190.460938 119.078125 188.855469 Z M 112.347656 182.125 C 113.902344 180.574219 113.902344 178.054688 112.347656 176.503906 C 110.796875 174.949219 108.277344 174.949219 106.726562 176.503906 C 105.171875 178.054688 105.171875 180.574219 106.726562 182.125 C 108.277344 183.679688 110.796875 183.679688 112.347656 182.125 Z M 105.621094 175.398438 C 107.121094 173.898438 107.121094 171.46875 105.621094 169.96875 C 104.121094 168.46875 101.691406 168.46875 100.191406 169.96875 C 98.691406 171.46875 98.691406 173.898438 100.191406 175.398438 C 101.691406 176.898438 104.121094 176.898438 105.621094 175.398438 Z M 93.65625 163.433594 C 92.210938 164.878906 92.210938 167.222656 93.65625 168.667969 C 95.101562 170.113281 97.445312 170.113281 98.890625 168.667969 C 100.335938 167.222656 100.335938 164.878906 98.890625 163.433594 C 97.445312 161.988281 95.101562 161.988281 93.65625 163.433594 Z M 87.121094 161.941406 C 88.511719 163.332031 90.769531 163.332031 92.164062 161.941406 C 93.554688 160.546875 93.554688 158.292969 92.164062 156.898438 C 90.769531 155.507812 88.511719 155.507812 87.121094 156.898438 C 85.730469 158.292969 85.730469 160.546875 87.121094 161.941406 Z M 80.585938 150.363281 C 79.25 151.703125 79.25 153.875 80.585938 155.210938 C 81.925781 156.550781 84.09375 156.550781 85.433594 155.210938 C 86.773438 153.875 86.773438 151.703125 85.433594 150.363281 C 84.09375 149.027344 81.925781 149.027344 80.585938 150.363281 Z M 74.050781 148.484375 C 75.335938 149.769531 77.421875 149.769531 78.707031 148.484375 C 79.992188 147.199219 79.992188 145.113281 78.707031 143.828125 C 77.421875 142.542969 75.335938 142.542969 74.050781 143.828125 C 72.765625 145.113281 72.765625 147.199219 74.050781 148.484375 Z M 67.515625 141.753906 C 68.75 142.984375 70.746094 142.984375 71.976562 141.753906 C 73.207031 140.523438 73.207031 138.527344 71.976562 137.296875 C 70.746094 136.0625 68.75 136.0625 67.515625 137.296875 C 66.285156 138.527344 66.285156 140.523438 67.515625 141.753906 Z M 60.984375 130.761719 C 59.804688 131.9375 59.804688 133.847656 60.984375 135.027344 C 62.160156 136.203125 64.070312 136.203125 65.25 135.027344 C 66.425781 133.847656 66.425781 131.9375 65.25 130.761719 C 64.070312 129.582031 62.160156 129.582031 60.984375 130.761719 Z M 58.519531 128.296875 C 59.644531 127.171875 59.644531 125.351562 58.519531 124.226562 C 57.394531 123.101562 55.570312 123.101562 54.449219 124.226562 C 53.324219 125.351562 53.324219 127.171875 54.449219 128.296875 C 55.570312 129.421875 57.394531 129.421875 58.519531 128.296875 Z M 51.792969 121.570312 C 52.863281 120.496094 52.863281 118.761719 51.792969 117.691406 C 50.71875 116.621094 48.984375 116.621094 47.914062 117.691406 C 46.84375 118.761719 46.84375 120.496094 47.914062 121.570312 C 48.984375 122.640625 50.71875 122.640625 51.792969 121.570312 Z M 45.0625 114.839844 C 46.078125 113.824219 46.078125 112.171875 45.0625 111.15625 C 44.046875 110.140625 42.394531 110.140625 41.378906 111.15625 C 40.359375 112.171875 40.359375 113.824219 41.378906 114.839844 C 42.394531 115.859375 44.046875 115.859375 45.0625 114.839844 Z M 34.84375 104.621094 C 33.878906 105.585938 33.878906 107.148438 34.84375 108.113281 C 35.808594 109.074219 37.371094 109.074219 38.332031 108.113281 C 39.296875 107.148438 39.296875 105.585938 38.332031 104.621094 C 37.371094 103.65625 35.808594 103.65625 34.84375 104.621094 Z M 28.308594 98.085938 C 27.398438 98.996094 27.398438 100.472656 28.308594 101.382812 C 29.21875 102.292969 30.695312 102.292969 31.605469 101.382812 C 32.515625 100.472656 32.515625 98.996094 31.605469 98.085938 C 30.695312 97.175781 29.21875 97.175781 28.308594 98.085938 Z M 21.773438 91.550781 C 20.917969 92.410156 20.917969 93.796875 21.773438 94.65625 C 22.628906 95.511719 24.019531 95.511719 24.875 94.65625 C 25.734375 93.796875 25.734375 92.410156 24.875 91.550781 C 24.019531 90.695312 22.628906 90.695312 21.773438 91.550781 Z M 133.300781 189.136719 C 131.589844 190.847656 131.589844 193.628906 133.300781 195.339844 C 135.015625 197.054688 137.792969 197.054688 139.507812 195.339844 C 141.21875 193.628906 141.21875 190.847656 139.507812 189.136719 C 137.792969 187.421875 135.015625 187.421875 133.300781 189.136719 Z M 132.777344 188.613281 C 134.4375 186.953125 134.4375 184.261719 132.777344 182.601562 C 131.117188 180.941406 128.425781 180.941406 126.765625 182.601562 C 125.105469 184.261719 125.105469 186.953125 126.765625 188.613281 C 128.425781 190.273438 131.117188 190.273438 132.777344 188.613281 Z M 126.050781 181.882812 C 127.65625 180.277344 127.65625 177.671875 126.050781 176.066406 C 124.441406 174.460938 121.839844 174.460938 120.230469 176.066406 C 118.625 177.671875 118.625 180.277344 120.230469 181.882812 C 121.839844 183.488281 124.441406 183.488281 126.050781 181.882812 Z M 119.320312 175.15625 C 120.875 173.601562 120.875 171.085938 119.320312 169.53125 C 117.765625 167.980469 115.25 167.980469 113.695312 169.53125 C 112.144531 171.085938 112.144531 173.601562 113.695312 175.15625 C 115.25 176.707031 117.765625 176.707031 119.320312 175.15625 Z M 107.164062 162.996094 C 105.664062 164.496094 105.664062 166.925781 107.164062 168.425781 C 108.660156 169.925781 111.09375 169.925781 112.589844 168.425781 C 114.089844 166.925781 114.089844 164.496094 112.589844 162.996094 C 111.09375 161.496094 108.660156 161.496094 107.164062 162.996094 Z M 100.628906 156.460938 C 99.183594 157.90625 99.183594 160.253906 100.628906 161.699219 C 102.074219 163.144531 104.417969 163.144531 105.863281 161.699219 C 107.308594 160.253906 107.308594 157.90625 105.863281 156.460938 C 104.417969 155.015625 102.074219 155.015625 100.628906 156.460938 Z M 94.09375 154.96875 C 95.484375 156.359375 97.742188 156.359375 99.132812 154.96875 C 100.527344 153.578125 100.527344 151.320312 99.132812 149.925781 C 97.742188 148.535156 95.484375 148.535156 94.09375 149.925781 C 92.699219 151.320312 92.699219 153.578125 94.09375 154.96875 Z M 87.558594 143.394531 C 86.21875 144.730469 86.21875 146.902344 87.558594 148.242188 C 88.898438 149.578125 91.066406 149.578125 92.40625 148.242188 C 93.746094 146.902344 93.746094 144.730469 92.40625 143.394531 C 91.066406 142.054688 88.898438 142.054688 87.558594 143.394531 Z M 81.023438 141.511719 C 82.308594 142.796875 84.390625 142.796875 85.675781 141.511719 C 86.960938 140.226562 86.960938 138.144531 85.675781 136.859375 C 84.390625 135.574219 82.308594 135.574219 81.023438 136.859375 C 79.738281 138.144531 79.738281 140.226562 81.023438 141.511719 Z M 74.488281 134.785156 C 75.71875 136.015625 77.71875 136.015625 78.949219 134.785156 C 80.179688 133.550781 80.179688 131.554688 78.949219 130.324219 C 77.71875 129.09375 75.71875 129.09375 74.488281 130.324219 C 73.257812 131.554688 73.257812 133.550781 74.488281 134.785156 Z M 67.953125 123.789062 C 66.777344 124.964844 66.777344 126.875 67.953125 128.054688 C 69.132812 129.234375 71.042969 129.234375 72.21875 128.054688 C 73.398438 126.875 73.398438 124.964844 72.21875 123.789062 C 71.042969 122.609375 69.132812 122.609375 67.953125 123.789062 Z M 65.492188 121.324219 C 66.617188 120.203125 66.617188 118.378906 65.492188 117.253906 C 64.367188 116.128906 62.542969 116.128906 61.417969 117.253906 C 60.292969 118.378906 60.292969 120.203125 61.417969 121.324219 C 62.542969 122.449219 64.367188 122.449219 65.492188 121.324219 Z M 58.761719 114.597656 C 59.832031 113.527344 59.832031 111.789062 58.761719 110.71875 C 57.691406 109.648438 55.957031 109.648438 54.882812 110.71875 C 53.8125 111.789062 53.8125 113.527344 54.882812 114.597656 C 55.957031 115.667969 57.691406 115.667969 58.761719 114.597656 Z M 52.035156 107.867188 C 53.050781 106.851562 53.050781 105.203125 52.035156 104.183594 C 51.015625 103.167969 49.367188 103.167969 48.351562 104.183594 C 47.332031 105.203125 47.332031 106.851562 48.351562 107.867188 C 49.367188 108.886719 51.015625 108.886719 52.035156 107.867188 Z M 45.304688 101.140625 C 46.269531 100.175781 46.269531 98.613281 45.304688 97.648438 C 44.339844 96.6875 42.777344 96.6875 41.816406 97.648438 C 40.851562 98.613281 40.851562 100.175781 41.816406 101.140625 C 42.777344 102.105469 44.339844 102.105469 45.304688 101.140625 Z M 38.578125 94.410156 C 39.488281 93.5 39.488281 92.023438 38.578125 91.113281 C 37.667969 90.203125 36.191406 90.203125 35.28125 91.113281 C 34.371094 92.023438 34.371094 93.5 35.28125 94.410156 C 36.191406 95.320312 37.667969 95.320312 38.578125 94.410156 Z M 28.746094 84.582031 C 27.890625 85.4375 27.890625 86.824219 28.746094 87.683594 C 29.601562 88.539062 30.992188 88.539062 31.847656 87.683594 C 32.703125 86.824219 32.703125 85.4375 31.847656 84.582031 C 30.992188 83.722656 29.601562 83.722656 28.746094 84.582031 Z M 140.273438 182.164062 C 138.558594 183.878906 138.558594 186.65625 140.273438 188.371094 C 141.988281 190.082031 144.765625 190.082031 146.476562 188.371094 C 148.191406 186.65625 148.191406 183.878906 146.476562 182.164062 C 144.765625 180.453125 141.988281 180.453125 140.273438 182.164062 Z M 139.75 181.640625 C 141.410156 179.980469 141.410156 177.289062 139.75 175.628906 C 138.089844 173.96875 135.398438 173.96875 133.738281 175.628906 C 132.078125 177.289062 132.078125 179.980469 133.738281 181.640625 C 135.398438 183.300781 138.089844 183.300781 139.75 181.640625 Z M 133.019531 174.910156 C 134.625 173.304688 134.625 170.703125 133.019531 169.09375 C 131.414062 167.488281 128.808594 167.488281 127.203125 169.09375 C 125.597656 170.703125 125.597656 173.304688 127.203125 174.910156 C 128.808594 176.519531 131.414062 176.519531 133.019531 174.910156 Z M 126.292969 168.183594 C 127.84375 166.628906 127.84375 164.113281 126.292969 162.558594 C 124.738281 161.007812 122.222656 161.007812 120.667969 162.558594 C 119.117188 164.113281 119.117188 166.628906 120.667969 168.183594 C 122.222656 169.734375 124.738281 169.734375 126.292969 168.183594 Z M 119.5625 161.453125 C 121.0625 159.957031 121.0625 157.523438 119.5625 156.027344 C 118.0625 154.527344 115.632812 154.527344 114.132812 156.027344 C 112.636719 157.523438 112.636719 159.957031 114.132812 161.453125 C 115.632812 162.953125 118.0625 162.953125 119.5625 161.453125 Z M 107.597656 149.492188 C 106.152344 150.9375 106.152344 153.28125 107.597656 154.726562 C 109.046875 156.171875 111.390625 156.171875 112.835938 154.726562 C 114.28125 153.28125 114.28125 150.9375 112.835938 149.492188 C 111.390625 148.046875 109.046875 148.046875 107.597656 149.492188 Z M 101.066406 147.996094 C 102.457031 149.390625 104.714844 149.390625 106.105469 147.996094 C 107.5 146.605469 107.5 144.347656 106.105469 142.957031 C 104.714844 141.5625 102.457031 141.5625 101.066406 142.957031 C 99.671875 144.347656 99.671875 146.605469 101.066406 147.996094 Z M 94.53125 136.421875 C 93.191406 137.761719 93.191406 139.929688 94.53125 141.269531 C 95.867188 142.609375 98.039062 142.609375 99.378906 141.269531 C 100.714844 139.929688 100.714844 137.761719 99.378906 136.421875 C 98.039062 135.082031 95.867188 135.082031 94.53125 136.421875 Z M 87.996094 134.539062 C 89.28125 135.824219 91.363281 135.824219 92.648438 134.539062 C 93.933594 133.253906 93.933594 131.171875 92.648438 129.886719 C 91.363281 128.601562 89.28125 128.601562 87.996094 129.886719 C 86.710938 131.171875 86.710938 133.253906 87.996094 134.539062 Z M 81.460938 127.8125 C 82.691406 129.042969 84.6875 129.042969 85.921875 127.8125 C 87.152344 126.582031 87.152344 124.582031 85.921875 123.351562 C 84.6875 122.121094 82.691406 122.121094 81.460938 123.351562 C 80.230469 124.582031 80.230469 126.582031 81.460938 127.8125 Z M 74.925781 116.816406 C 73.746094 117.996094 73.746094 119.90625 74.925781 121.082031 C 76.105469 122.261719 78.011719 122.261719 79.191406 121.082031 C 80.371094 119.90625 80.371094 117.996094 79.191406 116.816406 C 78.011719 115.640625 76.105469 115.640625 74.925781 116.816406 Z M 72.460938 114.355469 C 73.585938 113.230469 73.585938 111.40625 72.460938 110.28125 C 71.339844 109.15625 69.515625 109.15625 68.390625 110.28125 C 67.265625 111.40625 67.265625 113.230469 68.390625 114.355469 C 69.515625 115.480469 71.339844 115.480469 72.460938 114.355469 Z M 65.734375 107.625 C 66.804688 106.554688 66.804688 104.820312 65.734375 103.746094 C 64.664062 102.675781 62.925781 102.675781 61.855469 103.746094 C 60.785156 104.820312 60.785156 106.554688 61.855469 107.625 C 62.925781 108.695312 64.664062 108.695312 65.734375 107.625 Z M 59.003906 100.898438 C 60.023438 99.878906 60.023438 98.230469 59.003906 97.214844 C 57.988281 96.195312 56.339844 96.195312 55.320312 97.214844 C 54.304688 98.230469 54.304688 99.878906 55.320312 100.898438 C 56.339844 101.914062 57.988281 101.914062 59.003906 100.898438 Z M 52.277344 94.167969 C 53.242188 93.203125 53.242188 91.640625 52.277344 90.679688 C 51.3125 89.714844 49.75 89.714844 48.785156 90.679688 C 47.824219 91.640625 47.824219 93.203125 48.785156 94.167969 C 49.75 95.132812 51.3125 95.132812 52.277344 94.167969 Z M 45.546875 87.441406 C 46.457031 86.53125 46.457031 85.054688 45.546875 84.144531 C 44.636719 83.234375 43.164062 83.234375 42.25 84.144531 C 41.339844 85.054688 41.339844 86.53125 42.25 87.441406 C 43.164062 88.351562 44.636719 88.351562 45.546875 87.441406 Z M 38.820312 80.710938 C 39.675781 79.855469 39.675781 78.464844 38.820312 77.609375 C 37.964844 76.753906 36.574219 76.753906 35.71875 77.609375 C 34.859375 78.464844 34.859375 79.855469 35.71875 80.710938 C 36.574219 81.566406 37.964844 81.566406 38.820312 80.710938 Z M 147.246094 175.191406 C 145.53125 176.90625 145.53125 179.683594 147.246094 181.398438 C 148.957031 183.109375 151.734375 183.109375 153.449219 181.398438 C 155.164062 179.683594 155.164062 176.90625 153.449219 175.191406 C 151.734375 173.480469 148.957031 173.480469 147.246094 175.191406 Z M 146.71875 174.667969 C 148.378906 173.007812 148.378906 170.316406 146.71875 168.660156 C 145.0625 167 142.371094 167 140.710938 168.660156 C 139.050781 170.316406 139.050781 173.007812 140.710938 174.667969 C 142.371094 176.328125 145.0625 176.328125 146.71875 174.667969 Z M 139.992188 167.941406 C 141.597656 166.335938 141.597656 163.730469 139.992188 162.125 C 138.386719 160.515625 135.78125 160.515625 134.175781 162.125 C 132.570312 163.730469 132.570312 166.335938 134.175781 167.941406 C 135.78125 169.546875 138.386719 169.546875 139.992188 167.941406 Z M 133.261719 161.210938 C 134.816406 159.660156 134.816406 157.140625 133.261719 155.589844 C 131.710938 154.035156 129.191406 154.035156 127.640625 155.589844 C 126.085938 157.140625 126.085938 159.660156 127.640625 161.210938 C 129.191406 162.765625 131.710938 162.765625 133.261719 161.210938 Z M 126.535156 154.484375 C 128.035156 152.984375 128.035156 150.554688 126.535156 149.054688 C 125.035156 147.554688 122.605469 147.554688 121.105469 149.054688 C 119.605469 150.554688 119.605469 152.984375 121.105469 154.484375 C 122.605469 155.984375 125.035156 155.984375 126.535156 154.484375 Z M 114.570312 142.519531 C 113.125 143.964844 113.125 146.308594 114.570312 147.753906 C 116.015625 149.199219 118.359375 149.199219 119.804688 147.753906 C 121.25 146.308594 121.25 143.964844 119.804688 142.519531 C 118.359375 141.074219 116.015625 141.074219 114.570312 142.519531 Z M 108.035156 141.027344 C 109.429688 142.417969 111.683594 142.417969 113.078125 141.027344 C 114.46875 139.632812 114.46875 137.375 113.078125 135.984375 C 111.683594 134.59375 109.429688 134.59375 108.035156 135.984375 C 106.644531 137.375 106.644531 139.632812 108.035156 141.027344 Z M 101.5 129.449219 C 100.164062 130.789062 100.164062 132.957031 101.5 134.296875 C 102.839844 135.636719 105.011719 135.636719 106.347656 134.296875 C 107.6875 132.957031 107.6875 130.789062 106.347656 129.449219 C 105.011719 128.109375 102.839844 128.109375 101.5 129.449219 Z M 94.964844 127.570312 C 96.25 128.855469 98.335938 128.855469 99.621094 127.570312 C 100.90625 126.285156 100.90625 124.199219 99.621094 122.914062 C 98.335938 121.628906 96.25 121.628906 94.964844 122.914062 C 93.679688 124.199219 93.679688 126.285156 94.964844 127.570312 Z M 88.433594 120.839844 C 89.664062 122.070312 91.660156 122.070312 92.890625 120.839844 C 94.125 119.609375 94.125 117.613281 92.890625 116.378906 C 91.660156 115.148438 89.664062 115.148438 88.433594 116.378906 C 87.199219 117.613281 87.199219 119.609375 88.433594 120.839844 Z M 81.898438 109.84375 C 80.71875 111.023438 80.71875 112.933594 81.898438 114.113281 C 83.074219 115.289062 84.984375 115.289062 86.164062 114.113281 C 87.339844 112.933594 87.339844 111.023438 86.164062 109.84375 C 84.984375 108.667969 83.074219 108.667969 81.898438 109.84375 Z M 79.433594 107.382812 C 80.558594 106.257812 80.558594 104.433594 79.433594 103.3125 C 78.308594 102.1875 76.488281 102.1875 75.363281 103.3125 C 74.238281 104.433594 74.238281 106.257812 75.363281 107.382812 C 76.488281 108.507812 78.308594 108.507812 79.433594 107.382812 Z M 72.707031 100.652344 C 73.777344 99.582031 73.777344 97.847656 72.707031 96.777344 C 71.636719 95.707031 69.898438 95.707031 68.828125 96.777344 C 67.757812 97.847656 67.757812 99.582031 68.828125 100.652344 C 69.898438 101.726562 71.636719 101.726562 72.707031 100.652344 Z M 65.976562 93.925781 C 66.996094 92.910156 66.996094 91.257812 65.976562 90.242188 C 64.960938 89.222656 63.308594 89.222656 62.292969 90.242188 C 61.277344 91.257812 61.277344 92.910156 62.292969 93.925781 C 63.308594 94.941406 64.960938 94.941406 65.976562 93.925781 Z M 59.25 87.195312 C 60.210938 86.234375 60.210938 84.671875 59.25 83.707031 C 58.285156 82.742188 56.722656 82.742188 55.757812 83.707031 C 54.792969 84.671875 54.792969 86.234375 55.757812 87.195312 C 56.722656 88.160156 58.285156 88.160156 59.25 87.195312 Z M 52.519531 80.46875 C 53.429688 79.558594 53.429688 78.082031 52.519531 77.171875 C 51.609375 76.261719 50.132812 76.261719 49.222656 77.171875 C 48.3125 78.082031 48.3125 79.558594 49.222656 80.46875 C 50.132812 81.378906 51.609375 81.378906 52.519531 80.46875 Z M 45.792969 73.738281 C 46.648438 72.882812 46.648438 71.492188 45.792969 70.636719 C 44.933594 69.78125 43.546875 69.78125 42.6875 70.636719 C 41.832031 71.492188 41.832031 72.882812 42.6875 73.738281 C 43.546875 74.597656 44.933594 74.597656 45.792969 73.738281 Z M 154.214844 168.222656 C 152.503906 169.933594 152.503906 172.714844 154.214844 174.425781 C 155.929688 176.140625 158.707031 176.140625 160.421875 174.425781 C 162.132812 172.714844 162.132812 169.933594 160.421875 168.222656 C 158.707031 166.507812 155.929688 166.507812 154.214844 168.222656 Z M 153.691406 167.699219 C 155.351562 166.039062 155.351562 163.347656 153.691406 161.6875 C 152.03125 160.027344 149.339844 160.027344 147.679688 161.6875 C 146.019531 163.347656 146.019531 166.039062 147.679688 167.699219 C 149.339844 169.359375 152.03125 169.359375 153.691406 167.699219 Z M 146.964844 160.96875 C 148.570312 159.363281 148.570312 156.757812 146.964844 155.152344 C 145.355469 153.546875 142.753906 153.546875 141.148438 155.152344 C 139.539062 156.757812 139.539062 159.363281 141.148438 160.96875 C 142.753906 162.574219 145.355469 162.574219 146.964844 160.96875 Z M 140.234375 154.242188 C 141.789062 152.6875 141.789062 150.171875 140.234375 148.617188 C 138.683594 147.066406 136.164062 147.066406 134.613281 148.617188 C 133.058594 150.171875 133.058594 152.6875 134.613281 154.242188 C 136.164062 155.792969 138.683594 155.792969 140.234375 154.242188 Z M 133.507812 147.511719 C 135.003906 146.011719 135.003906 143.582031 133.507812 142.082031 C 132.007812 140.582031 129.578125 140.582031 128.078125 142.082031 C 126.578125 143.582031 126.578125 146.011719 128.078125 147.511719 C 129.578125 149.011719 132.007812 149.011719 133.507812 147.511719 Z M 121.542969 135.546875 C 120.097656 136.992188 120.097656 139.335938 121.542969 140.78125 C 122.988281 142.230469 125.332031 142.230469 126.777344 140.78125 C 128.222656 139.335938 128.222656 136.992188 126.777344 135.546875 C 125.332031 134.101562 122.988281 134.101562 121.542969 135.546875 Z M 115.007812 134.054688 C 116.398438 135.445312 118.65625 135.445312 120.050781 134.054688 C 121.441406 132.664062 121.441406 130.40625 120.050781 129.011719 C 118.65625 127.621094 116.398438 127.621094 115.007812 129.011719 C 113.617188 130.40625 113.617188 132.664062 115.007812 134.054688 Z M 108.472656 122.476562 C 107.132812 123.816406 107.132812 125.988281 108.472656 127.324219 C 109.8125 128.664062 111.980469 128.664062 113.320312 127.324219 C 114.660156 125.988281 114.660156 123.816406 113.320312 122.476562 C 111.980469 121.140625 109.8125 121.140625 108.472656 122.476562 Z M 101.9375 120.597656 C 103.222656 121.882812 105.308594 121.882812 106.589844 120.597656 C 107.875 119.3125 107.875 117.230469 106.589844 115.945312 C 105.308594 114.660156 103.222656 114.660156 101.9375 115.945312 C 100.652344 117.230469 100.652344 119.3125 101.9375 120.597656 Z M 95.402344 113.867188 C 96.636719 115.101562 98.632812 115.101562 99.863281 113.867188 C 101.09375 112.636719 101.09375 110.640625 99.863281 109.410156 C 98.632812 108.175781 96.636719 108.175781 95.402344 109.410156 C 94.171875 110.640625 94.171875 112.636719 95.402344 113.867188 Z M 88.867188 102.875 C 87.691406 104.050781 87.691406 105.960938 88.867188 107.140625 C 90.046875 108.316406 91.957031 108.316406 93.132812 107.140625 C 94.3125 105.960938 94.3125 104.050781 93.132812 102.875 C 91.957031 101.695312 90.046875 101.695312 88.867188 102.875 Z M 86.40625 100.410156 C 87.53125 99.285156 87.53125 97.464844 86.40625 96.339844 C 85.28125 95.214844 83.457031 95.214844 82.332031 96.339844 C 81.210938 97.464844 81.210938 99.285156 82.332031 100.410156 C 83.457031 101.535156 85.28125 101.535156 86.40625 100.410156 Z M 79.675781 93.683594 C 80.75 92.613281 80.75 90.875 79.675781 89.804688 C 78.605469 88.734375 76.871094 88.734375 75.800781 89.804688 C 74.726562 90.875 74.726562 92.613281 75.800781 93.683594 C 76.871094 94.753906 78.605469 94.753906 79.675781 93.683594 Z M 72.949219 86.953125 C 73.964844 85.9375 73.964844 84.289062 72.949219 83.269531 C 71.929688 82.253906 70.28125 82.253906 69.265625 83.269531 C 68.246094 84.289062 68.246094 85.9375 69.265625 86.953125 C 70.28125 87.972656 71.929688 87.972656 72.949219 86.953125 Z M 66.21875 80.226562 C 67.183594 79.261719 67.183594 77.699219 66.21875 76.734375 C 65.257812 75.769531 63.695312 75.769531 62.730469 76.734375 C 61.765625 77.699219 61.765625 79.261719 62.730469 80.226562 C 63.695312 81.1875 65.257812 81.1875 66.21875 80.226562 Z M 59.492188 73.496094 C 60.402344 72.585938 60.402344 71.109375 59.492188 70.199219 C 58.582031 69.289062 57.105469 69.289062 56.195312 70.199219 C 55.285156 71.109375 55.285156 72.585938 56.195312 73.496094 C 57.105469 74.40625 58.582031 74.40625 59.492188 73.496094 Z M 52.761719 66.769531 C 53.621094 65.910156 53.621094 64.523438 52.761719 63.664062 C 51.90625 62.808594 50.515625 62.808594 49.660156 63.664062 C 48.804688 64.523438 48.804688 65.910156 49.660156 66.769531 C 50.515625 67.625 51.90625 67.625 52.761719 66.769531 Z M 161.1875 161.25 C 159.472656 162.964844 159.472656 165.742188 161.1875 167.453125 C 162.902344 169.167969 165.679688 169.167969 167.390625 167.453125 C 169.105469 165.742188 169.105469 162.964844 167.390625 161.25 C 165.679688 159.535156 162.902344 159.535156 161.1875 161.25 Z M 160.664062 160.726562 C 162.324219 159.066406 162.324219 156.375 160.664062 154.714844 C 159.003906 153.054688 156.3125 153.054688 154.652344 154.714844 C 152.992188 156.375 152.992188 159.066406 154.652344 160.726562 C 156.3125 162.386719 159.003906 162.386719 160.664062 160.726562 Z M 153.933594 153.996094 C 155.542969 152.390625 155.542969 149.785156 153.933594 148.179688 C 152.328125 146.574219 149.722656 146.574219 148.117188 148.179688 C 146.511719 149.785156 146.511719 152.390625 148.117188 153.996094 C 149.722656 155.605469 152.328125 155.605469 153.933594 153.996094 Z M 147.207031 147.269531 C 148.757812 145.714844 148.757812 143.199219 147.207031 141.644531 C 145.652344 140.09375 143.136719 140.09375 141.582031 141.644531 C 140.03125 143.199219 140.03125 145.714844 141.582031 147.269531 C 143.136719 148.820312 145.652344 148.820312 147.207031 147.269531 Z M 140.476562 140.539062 C 141.976562 139.039062 141.976562 136.609375 140.476562 135.109375 C 138.980469 133.613281 136.546875 133.613281 135.046875 135.109375 C 133.550781 136.609375 133.550781 139.039062 135.046875 140.539062 C 136.546875 142.039062 138.980469 142.039062 140.476562 140.539062 Z M 128.515625 128.578125 C 127.066406 130.023438 127.066406 132.367188 128.515625 133.8125 C 129.960938 135.257812 132.304688 135.257812 133.75 133.8125 C 135.195312 132.367188 135.195312 130.023438 133.75 128.578125 C 132.304688 127.128906 129.960938 127.128906 128.515625 128.578125 Z M 121.980469 127.082031 C 123.371094 128.476562 125.628906 128.476562 127.019531 127.082031 C 128.414062 125.691406 128.414062 123.433594 127.019531 122.042969 C 125.628906 120.648438 123.371094 120.648438 121.980469 122.042969 C 120.585938 123.433594 120.585938 125.691406 121.980469 127.082031 Z M 115.445312 115.507812 C 114.105469 116.84375 114.105469 119.015625 115.445312 120.355469 C 116.78125 121.691406 118.953125 121.691406 120.292969 120.355469 C 121.628906 119.015625 121.628906 116.84375 120.292969 115.507812 C 118.953125 114.167969 116.78125 114.167969 115.445312 115.507812 Z M 108.910156 113.625 C 110.195312 114.910156 112.277344 114.910156 113.5625 113.625 C 114.847656 112.339844 114.847656 110.257812 113.5625 108.972656 C 112.277344 107.6875 110.195312 107.6875 108.910156 108.972656 C 107.625 110.257812 107.625 112.339844 108.910156 113.625 Z M 102.375 106.898438 C 103.605469 108.128906 105.601562 108.128906 106.835938 106.898438 C 108.066406 105.664062 108.066406 103.667969 106.835938 102.4375 C 105.601562 101.207031 103.605469 101.207031 102.375 102.4375 C 101.144531 103.667969 101.144531 105.664062 102.375 106.898438 Z M 95.839844 95.902344 C 94.664062 97.082031 94.664062 98.992188 95.839844 100.167969 C 97.019531 101.347656 98.929688 101.347656 100.105469 100.167969 C 101.285156 98.992188 101.285156 97.082031 100.105469 95.902344 C 98.929688 94.726562 97.019531 94.726562 95.839844 95.902344 Z M 93.378906 93.441406 C 94.5 92.316406 94.5 90.492188 93.378906 89.367188 C 92.253906 88.242188 90.429688 88.242188 89.304688 89.367188 C 88.179688 90.492188 88.179688 92.316406 89.304688 93.441406 C 90.429688 94.5625 92.253906 94.5625 93.378906 93.441406 Z M 86.648438 86.710938 C 87.71875 85.640625 87.71875 83.902344 86.648438 82.832031 C 85.578125 81.761719 83.839844 81.761719 82.769531 82.832031 C 81.699219 83.902344 81.699219 85.640625 82.769531 86.710938 C 83.839844 87.78125 85.578125 87.78125 86.648438 86.710938 Z M 79.921875 79.984375 C 80.9375 78.964844 80.9375 77.316406 79.921875 76.296875 C 78.902344 75.28125 77.253906 75.28125 76.234375 76.296875 C 75.21875 77.316406 75.21875 78.964844 76.234375 79.984375 C 77.253906 81 78.902344 81 79.921875 79.984375 Z M 73.191406 73.253906 C 74.15625 72.289062 74.15625 70.726562 73.191406 69.765625 C 72.226562 68.800781 70.664062 68.800781 69.703125 69.765625 C 68.738281 70.726562 68.738281 72.289062 69.703125 73.253906 C 70.664062 74.21875 72.226562 74.21875 73.191406 73.253906 Z M 66.460938 66.523438 C 67.375 65.613281 67.375 64.140625 66.460938 63.230469 C 65.550781 62.320312 64.078125 62.320312 63.167969 63.230469 C 62.257812 64.140625 62.257812 65.613281 63.167969 66.523438 C 64.078125 67.433594 65.550781 67.433594 66.460938 66.523438 Z M 59.734375 59.796875 C 60.589844 58.941406 60.589844 57.550781 59.734375 56.695312 C 58.878906 55.835938 57.488281 55.835938 56.632812 56.695312 C 55.773438 57.550781 55.773438 58.941406 56.632812 59.796875 C 57.488281 60.652344 58.878906 60.652344 59.734375 59.796875 Z M 168.160156 154.277344 C 166.445312 155.992188 166.445312 158.769531 168.160156 160.484375 C 169.871094 162.195312 172.652344 162.195312 174.363281 160.484375 C 176.078125 158.769531 176.078125 155.992188 174.363281 154.277344 C 172.652344 152.566406 169.871094 152.566406 168.160156 154.277344 Z M 167.636719 153.753906 C 169.296875 152.09375 169.296875 149.402344 167.636719 147.742188 C 165.976562 146.082031 163.285156 146.082031 161.625 147.742188 C 159.964844 149.402344 159.964844 152.09375 161.625 153.753906 C 163.285156 155.414062 165.976562 155.414062 167.636719 153.753906 Z M 160.90625 147.027344 C 162.511719 145.417969 162.511719 142.816406 160.90625 141.207031 C 159.300781 139.601562 156.695312 139.601562 155.089844 141.207031 C 153.484375 142.816406 153.484375 145.417969 155.089844 147.027344 C 156.695312 148.632812 159.300781 148.632812 160.90625 147.027344 Z M 154.179688 140.296875 C 155.730469 138.746094 155.730469 136.226562 154.179688 134.675781 C 152.625 133.121094 150.109375 133.121094 148.554688 134.675781 C 147.003906 136.226562 147.003906 138.746094 148.554688 140.296875 C 150.109375 141.851562 152.625 141.851562 154.179688 140.296875 Z M 147.449219 133.570312 C 148.949219 132.070312 148.949219 129.640625 147.449219 128.140625 C 145.949219 126.640625 143.519531 126.640625 142.019531 128.140625 C 140.519531 129.640625 140.519531 132.070312 142.019531 133.570312 C 143.519531 135.066406 145.949219 135.066406 147.449219 133.570312 Z M 135.484375 121.605469 C 134.039062 123.050781 134.039062 125.394531 135.484375 126.839844 C 136.929688 128.285156 139.273438 128.285156 140.722656 126.839844 C 142.167969 125.394531 142.167969 123.050781 140.722656 121.605469 C 139.273438 120.160156 136.929688 120.160156 135.484375 121.605469 Z M 128.949219 120.113281 C 130.34375 121.503906 132.601562 121.503906 133.992188 120.113281 C 135.382812 118.71875 135.382812 116.460938 133.992188 115.070312 C 132.601562 113.679688 130.34375 113.679688 128.949219 115.070312 C 127.558594 116.460938 127.558594 118.71875 128.949219 120.113281 Z M 122.414062 108.535156 C 121.078125 109.875 121.078125 112.042969 122.414062 113.382812 C 123.753906 114.722656 125.925781 114.722656 127.261719 113.382812 C 128.601562 112.042969 128.601562 109.875 127.261719 108.535156 C 125.925781 107.195312 123.753906 107.195312 122.414062 108.535156 Z M 115.882812 106.652344 C 117.167969 107.9375 119.25 107.9375 120.535156 106.652344 C 121.820312 105.367188 121.820312 103.285156 120.535156 102 C 119.25 100.714844 117.167969 100.714844 115.882812 102 C 114.597656 103.285156 114.597656 105.367188 115.882812 106.652344 Z M 109.347656 99.925781 C 110.578125 101.15625 112.574219 101.15625 113.804688 99.925781 C 115.039062 98.695312 115.039062 96.699219 113.804688 95.464844 C 112.574219 94.234375 110.578125 94.234375 109.347656 95.464844 C 108.113281 96.699219 108.113281 98.695312 109.347656 99.925781 Z M 102.8125 88.929688 C 101.632812 90.109375 101.632812 92.019531 102.8125 93.195312 C 103.988281 94.375 105.898438 94.375 107.078125 93.195312 C 108.253906 92.019531 108.253906 90.109375 107.078125 88.929688 C 105.898438 87.753906 103.988281 87.753906 102.8125 88.929688 Z M 100.347656 86.46875 C 101.472656 85.34375 101.472656 83.519531 100.347656 82.394531 C 99.222656 81.273438 97.402344 81.273438 96.277344 82.394531 C 95.152344 83.519531 95.152344 85.34375 96.277344 86.46875 C 97.402344 87.59375 99.222656 87.59375 100.347656 86.46875 Z M 93.621094 79.738281 C 94.691406 78.667969 94.691406 76.933594 93.621094 75.863281 C 92.550781 74.789062 90.8125 74.789062 89.742188 75.863281 C 88.671875 76.933594 88.671875 78.667969 89.742188 79.738281 C 90.8125 80.808594 92.550781 80.808594 93.621094 79.738281 Z M 86.890625 73.011719 C 87.910156 71.992188 87.910156 70.34375 86.890625 69.328125 C 85.875 68.308594 84.226562 68.308594 83.207031 69.328125 C 82.191406 70.34375 82.191406 71.992188 83.207031 73.011719 C 84.226562 74.027344 85.875 74.027344 86.890625 73.011719 Z M 80.164062 66.28125 C 81.125 65.320312 81.125 63.757812 80.164062 62.792969 C 79.199219 61.828125 77.636719 61.828125 76.671875 62.792969 C 75.710938 63.757812 75.710938 65.320312 76.671875 66.28125 C 77.636719 67.246094 79.199219 67.246094 80.164062 66.28125 Z M 73.433594 59.554688 C 74.34375 58.644531 74.34375 57.167969 73.433594 56.257812 C 72.523438 55.347656 71.046875 55.347656 70.136719 56.257812 C 69.226562 57.167969 69.226562 58.644531 70.136719 59.554688 C 71.046875 60.464844 72.523438 60.464844 73.433594 59.554688 Z M 66.707031 52.824219 C 67.5625 51.96875 67.5625 50.578125 66.707031 49.722656 C 65.847656 48.867188 64.460938 48.867188 63.601562 49.722656 C 62.746094 50.578125 62.746094 51.96875 63.601562 52.824219 C 64.460938 53.683594 65.847656 53.683594 66.707031 52.824219 Z M 175.128906 147.308594 C 173.417969 149.019531 173.417969 151.796875 175.128906 153.511719 C 176.84375 155.226562 179.621094 155.226562 181.335938 153.511719 C 183.050781 151.796875 183.050781 149.019531 181.335938 147.308594 C 179.621094 145.59375 176.84375 145.59375 175.128906 147.308594 Z M 174.605469 146.78125 C 176.265625 145.125 176.265625 142.433594 174.605469 140.773438 C 172.945312 139.113281 170.253906 139.113281 168.597656 140.773438 C 166.9375 142.433594 166.9375 145.125 168.597656 146.78125 C 170.253906 148.441406 172.945312 148.441406 174.605469 146.78125 Z M 167.878906 140.054688 C 169.484375 138.449219 169.484375 135.84375 167.878906 134.238281 C 166.273438 132.632812 163.667969 132.632812 162.0625 134.238281 C 160.453125 135.84375 160.453125 138.449219 162.0625 140.054688 C 163.667969 141.660156 166.273438 141.660156 167.878906 140.054688 Z M 161.148438 133.324219 C 162.703125 131.773438 162.703125 129.253906 161.148438 127.703125 C 159.597656 126.148438 157.078125 126.148438 155.527344 127.703125 C 153.972656 129.253906 153.972656 131.773438 155.527344 133.324219 C 157.078125 134.878906 159.597656 134.878906 161.148438 133.324219 Z M 154.421875 126.597656 C 155.921875 125.097656 155.921875 122.667969 154.421875 121.167969 C 152.921875 119.667969 150.492188 119.667969 148.992188 121.167969 C 147.492188 122.667969 147.492188 125.097656 148.992188 126.597656 C 150.492188 128.097656 152.921875 128.097656 154.421875 126.597656 Z M 142.457031 114.632812 C 141.011719 116.078125 141.011719 118.421875 142.457031 119.867188 C 143.902344 121.3125 146.246094 121.3125 147.691406 119.867188 C 149.136719 118.421875 149.136719 116.078125 147.691406 114.632812 C 146.246094 113.1875 143.902344 113.1875 142.457031 114.632812 Z M 135.921875 108.097656 C 134.53125 109.492188 134.53125 111.746094 135.921875 113.140625 C 137.3125 114.53125 139.570312 114.53125 140.964844 113.140625 C 142.355469 111.746094 142.355469 109.492188 140.964844 108.097656 C 139.570312 106.707031 137.3125 106.707031 135.921875 108.097656 Z M 129.386719 101.5625 C 128.050781 102.902344 128.050781 105.074219 129.386719 106.410156 C 130.726562 107.75 132.894531 107.75 134.234375 106.410156 C 135.574219 105.074219 135.574219 102.902344 134.234375 101.5625 C 132.894531 100.226562 130.726562 100.226562 129.386719 101.5625 Z M 122.851562 99.683594 C 124.136719 100.96875 126.222656 100.96875 127.507812 99.683594 C 128.792969 98.398438 128.792969 96.3125 127.507812 95.027344 C 126.222656 93.742188 124.136719 93.742188 122.851562 95.027344 C 121.566406 96.3125 121.566406 98.398438 122.851562 99.683594 Z M 116.316406 92.953125 C 117.550781 94.183594 119.546875 94.183594 120.777344 92.953125 C 122.007812 91.722656 122.007812 89.726562 120.777344 88.496094 C 119.546875 87.261719 117.550781 87.261719 116.316406 88.496094 C 115.085938 89.726562 115.085938 91.722656 116.316406 92.953125 Z M 109.785156 81.960938 C 108.605469 83.136719 108.605469 85.046875 109.785156 86.226562 C 110.960938 87.402344 112.871094 87.402344 114.050781 86.226562 C 115.226562 85.046875 115.226562 83.136719 114.050781 81.960938 C 112.871094 80.78125 110.960938 80.78125 109.785156 81.960938 Z M 107.320312 79.496094 C 108.445312 78.371094 108.445312 76.550781 107.320312 75.425781 C 106.195312 74.300781 104.371094 74.300781 103.25 75.425781 C 102.125 76.550781 102.125 78.371094 103.25 79.496094 C 104.371094 80.621094 106.195312 80.621094 107.320312 79.496094 Z M 100.59375 72.769531 C 101.664062 71.695312 101.664062 69.960938 100.59375 68.890625 C 99.519531 67.820312 97.785156 67.820312 96.714844 68.890625 C 95.644531 69.960938 95.644531 71.695312 96.714844 72.769531 C 97.785156 73.839844 99.519531 73.839844 100.59375 72.769531 Z M 93.863281 66.039062 C 94.878906 65.023438 94.878906 63.371094 93.863281 62.355469 C 92.847656 61.339844 91.195312 61.339844 90.179688 62.355469 C 89.160156 63.371094 89.160156 65.023438 90.179688 66.039062 C 91.195312 67.058594 92.847656 67.058594 93.863281 66.039062 Z M 87.132812 59.3125 C 88.097656 58.347656 88.097656 56.785156 87.132812 55.820312 C 86.171875 54.855469 84.609375 54.855469 83.644531 55.820312 C 82.679688 56.785156 82.679688 58.347656 83.644531 59.3125 C 84.609375 60.273438 86.171875 60.273438 87.132812 59.3125 Z M 80.40625 52.582031 C 81.316406 51.671875 81.316406 50.195312 80.40625 49.285156 C 79.496094 48.375 78.019531 48.375 77.109375 49.285156 C 76.199219 50.195312 76.199219 51.671875 77.109375 52.582031 C 78.019531 53.492188 79.496094 53.492188 80.40625 52.582031 Z M 73.675781 45.855469 C 74.535156 44.996094 74.535156 43.609375 73.675781 42.75 C 72.820312 41.894531 71.429688 41.894531 70.574219 42.75 C 69.71875 43.609375 69.71875 44.996094 70.574219 45.855469 C 71.429688 46.710938 72.820312 46.710938 73.675781 45.855469 Z M 182.101562 140.335938 C 180.390625 142.046875 180.390625 144.828125 182.101562 146.539062 C 183.816406 148.253906 186.59375 148.253906 188.308594 146.539062 C 190.019531 144.828125 190.019531 142.046875 188.308594 140.335938 C 186.59375 138.621094 183.816406 138.621094 182.101562 140.335938 Z M 181.578125 139.8125 C 183.238281 138.152344 183.238281 135.460938 181.578125 133.800781 C 179.917969 132.140625 177.226562 132.140625 175.566406 133.800781 C 173.90625 135.460938 173.90625 138.152344 175.566406 139.8125 C 177.226562 141.472656 179.917969 141.472656 181.578125 139.8125 Z M 174.851562 133.082031 C 176.457031 131.476562 176.457031 128.871094 174.851562 127.265625 C 173.242188 125.660156 170.640625 125.660156 169.03125 127.265625 C 167.425781 128.871094 167.425781 131.476562 169.03125 133.082031 C 170.640625 134.6875 173.242188 134.6875 174.851562 133.082031 Z M 168.121094 126.355469 C 169.675781 124.800781 169.675781 122.285156 168.121094 120.730469 C 166.566406 119.179688 164.050781 119.179688 162.496094 120.730469 C 160.945312 122.285156 160.945312 124.800781 162.496094 126.355469 C 164.050781 127.90625 166.566406 127.90625 168.121094 126.355469 Z M 161.390625 119.625 C 162.890625 118.125 162.890625 115.695312 161.390625 114.195312 C 159.894531 112.695312 157.460938 112.695312 155.964844 114.195312 C 154.464844 115.695312 154.464844 118.125 155.964844 119.625 C 157.460938 121.125 159.894531 121.125 161.390625 119.625 Z M 149.429688 107.660156 C 147.984375 109.105469 147.984375 111.453125 149.429688 112.898438 C 150.875 114.34375 153.21875 114.34375 154.664062 112.898438 C 156.109375 111.453125 156.109375 109.105469 154.664062 107.660156 C 153.21875 106.214844 150.875 106.214844 149.429688 107.660156 Z M 142.894531 101.125 C 141.5 102.519531 141.5 104.777344 142.894531 106.167969 C 144.285156 107.558594 146.542969 107.558594 147.933594 106.167969 C 149.328125 104.777344 149.328125 102.519531 147.933594 101.125 C 146.542969 99.734375 144.285156 99.734375 142.894531 101.125 Z M 136.359375 99.441406 C 137.699219 100.777344 139.867188 100.777344 141.207031 99.441406 C 142.546875 98.101562 142.546875 95.929688 141.207031 94.59375 C 139.867188 93.253906 137.699219 93.253906 136.359375 94.59375 C 135.019531 95.929688 135.019531 98.101562 136.359375 99.441406 Z M 129.824219 92.710938 C 131.109375 93.996094 133.191406 93.996094 134.476562 92.710938 C 135.761719 91.425781 135.761719 89.34375 134.476562 88.058594 C 133.191406 86.773438 131.109375 86.773438 129.824219 88.058594 C 128.539062 89.34375 128.539062 91.425781 129.824219 92.710938 Z M 123.289062 85.984375 C 124.519531 87.214844 126.519531 87.214844 127.75 85.984375 C 128.980469 84.75 128.980469 82.753906 127.75 81.523438 C 126.519531 80.292969 124.519531 80.292969 123.289062 81.523438 C 122.058594 82.753906 122.058594 84.75 123.289062 85.984375 Z M 116.753906 74.988281 C 115.578125 76.164062 115.578125 78.074219 116.753906 79.253906 C 117.933594 80.433594 119.84375 80.433594 121.019531 79.253906 C 122.199219 78.074219 122.199219 76.164062 121.019531 74.988281 C 119.84375 73.808594 117.933594 73.808594 116.753906 74.988281 Z M 114.292969 72.523438 C 115.417969 71.402344 115.417969 69.578125 114.292969 68.453125 C 113.167969 67.328125 111.34375 67.328125 110.21875 68.453125 C 109.09375 69.578125 109.09375 71.402344 110.21875 72.523438 C 111.34375 73.648438 113.167969 73.648438 114.292969 72.523438 Z M 107.5625 65.796875 C 108.632812 64.726562 108.632812 62.988281 107.5625 61.917969 C 106.492188 60.847656 104.757812 60.847656 103.683594 61.917969 C 102.613281 62.988281 102.613281 64.726562 103.683594 65.796875 C 104.757812 66.867188 106.492188 66.867188 107.5625 65.796875 Z M 100.835938 59.066406 C 101.851562 58.050781 101.851562 56.402344 100.835938 55.382812 C 99.816406 54.367188 98.167969 54.367188 97.152344 55.382812 C 96.132812 56.402344 96.132812 58.050781 97.152344 59.066406 C 98.167969 60.085938 99.816406 60.085938 100.835938 59.066406 Z M 94.105469 52.339844 C 95.070312 51.375 95.070312 49.8125 94.105469 48.847656 C 93.140625 47.886719 91.578125 47.886719 90.617188 48.847656 C 89.652344 49.8125 89.652344 51.375 90.617188 52.339844 C 91.578125 53.304688 93.140625 53.304688 94.105469 52.339844 Z M 87.378906 45.609375 C 88.289062 44.699219 88.289062 43.222656 87.378906 42.3125 C 86.46875 41.402344 84.992188 41.402344 84.082031 42.3125 C 83.171875 43.222656 83.171875 44.699219 84.082031 45.609375 C 84.992188 46.519531 86.46875 46.519531 87.378906 45.609375 Z M 80.648438 38.882812 C 81.503906 38.023438 81.503906 36.636719 80.648438 35.78125 C 79.792969 34.921875 78.402344 34.921875 77.546875 35.78125 C 76.691406 36.636719 76.691406 38.023438 77.546875 38.882812 C 78.402344 39.738281 79.792969 39.738281 80.648438 38.882812 Z M 189.074219 133.363281 C 187.359375 135.078125 187.359375 137.855469 189.074219 139.570312 C 190.789062 141.28125 193.566406 141.28125 195.277344 139.570312 C 196.992188 137.855469 196.992188 135.078125 195.277344 133.363281 C 193.566406 131.652344 190.789062 131.652344 189.074219 133.363281 Z M 188.550781 132.839844 C 190.210938 131.179688 190.210938 128.488281 188.550781 126.828125 C 186.890625 125.167969 184.199219 125.167969 182.539062 126.828125 C 180.878906 128.488281 180.878906 131.179688 182.539062 132.839844 C 184.199219 134.5 186.890625 134.5 188.550781 132.839844 Z M 181.820312 126.113281 C 183.425781 124.503906 183.425781 121.902344 181.820312 120.292969 C 180.214844 118.6875 177.609375 118.6875 176.003906 120.292969 C 174.398438 121.902344 174.398438 124.503906 176.003906 126.113281 C 177.609375 127.71875 180.214844 127.71875 181.820312 126.113281 Z M 175.09375 119.382812 C 176.644531 117.828125 176.644531 115.3125 175.09375 113.757812 C 173.539062 112.207031 171.023438 112.207031 169.46875 113.757812 C 167.917969 115.3125 167.917969 117.828125 169.46875 119.382812 C 171.023438 120.933594 173.539062 120.933594 175.09375 119.382812 Z M 168.363281 112.652344 C 169.863281 111.15625 169.863281 108.722656 168.363281 107.226562 C 166.863281 105.726562 164.433594 105.726562 162.933594 107.226562 C 161.4375 108.722656 161.4375 111.15625 162.933594 112.652344 C 164.433594 114.152344 166.863281 114.152344 168.363281 112.652344 Z M 156.398438 100.691406 C 154.953125 102.136719 154.953125 104.480469 156.398438 105.925781 C 157.847656 107.371094 160.191406 107.371094 161.636719 105.925781 C 163.082031 104.480469 163.082031 102.136719 161.636719 100.691406 C 160.191406 99.246094 157.847656 99.246094 156.398438 100.691406 Z M 149.867188 94.15625 C 148.472656 95.546875 148.472656 97.804688 149.867188 99.195312 C 151.257812 100.589844 153.515625 100.589844 154.90625 99.195312 C 156.300781 97.804688 156.300781 95.546875 154.90625 94.15625 C 153.515625 92.761719 151.257812 92.761719 149.867188 94.15625 Z M 143.332031 92.46875 C 144.667969 93.808594 146.839844 93.808594 148.179688 92.46875 C 149.515625 91.128906 149.515625 88.960938 148.179688 87.621094 C 146.839844 86.28125 144.667969 86.28125 143.332031 87.621094 C 141.992188 88.960938 141.992188 91.128906 143.332031 92.46875 Z M 136.796875 85.738281 C 138.082031 87.023438 140.164062 87.023438 141.449219 85.738281 C 142.734375 84.453125 142.734375 82.371094 141.449219 81.085938 C 140.164062 79.800781 138.082031 79.800781 136.796875 81.085938 C 135.511719 82.371094 135.511719 84.453125 136.796875 85.738281 Z M 134.722656 79.011719 C 135.953125 77.78125 135.953125 75.78125 134.722656 74.550781 C 133.488281 73.320312 131.492188 73.320312 130.261719 74.550781 C 129.03125 75.78125 129.03125 77.78125 130.261719 79.011719 C 131.492188 80.242188 133.488281 80.242188 134.722656 79.011719 Z M 123.726562 68.015625 C 122.546875 69.195312 122.546875 71.105469 123.726562 72.28125 C 124.90625 73.460938 126.8125 73.460938 127.992188 72.28125 C 129.171875 71.105469 129.171875 69.195312 127.992188 68.015625 C 126.8125 66.839844 124.90625 66.839844 123.726562 68.015625 Z M 121.261719 65.554688 C 122.386719 64.429688 122.386719 62.605469 121.261719 61.480469 C 120.140625 60.355469 118.316406 60.355469 117.191406 61.480469 C 116.066406 62.605469 116.066406 64.429688 117.191406 65.554688 C 118.316406 66.679688 120.140625 66.679688 121.261719 65.554688 Z M 114.535156 58.824219 C 115.605469 57.753906 115.605469 56.019531 114.535156 54.945312 C 113.464844 53.875 111.726562 53.875 110.65625 54.945312 C 109.585938 56.019531 109.585938 57.753906 110.65625 58.824219 C 111.726562 59.894531 113.464844 59.894531 114.535156 58.824219 Z M 107.804688 52.097656 C 108.824219 51.078125 108.824219 49.429688 107.804688 48.414062 C 106.789062 47.394531 105.140625 47.394531 104.121094 48.414062 C 103.105469 49.429688 103.105469 51.078125 104.121094 52.097656 C 105.140625 53.113281 106.789062 53.113281 107.804688 52.097656 Z M 101.078125 45.367188 C 102.042969 44.402344 102.042969 42.839844 101.078125 41.878906 C 100.113281 40.914062 98.550781 40.914062 97.585938 41.878906 C 96.625 42.839844 96.625 44.402344 97.585938 45.367188 C 98.550781 46.332031 100.113281 46.332031 101.078125 45.367188 Z M 94.347656 38.640625 C 95.257812 37.730469 95.257812 36.253906 94.347656 35.34375 C 93.4375 34.433594 91.964844 34.433594 91.050781 35.34375 C 90.140625 36.253906 90.140625 37.730469 91.050781 38.640625 C 91.964844 39.550781 93.4375 39.550781 94.347656 38.640625 Z M 87.621094 31.910156 C 88.476562 31.054688 88.476562 29.664062 87.621094 28.808594 C 86.765625 27.953125 85.375 27.953125 84.519531 28.808594 C 83.660156 29.664062 83.660156 31.054688 84.519531 31.910156 C 85.375 32.765625 86.765625 32.765625 87.621094 31.910156 Z M 196.046875 126.390625 C 194.332031 128.105469 194.332031 130.882812 196.046875 132.597656 C 197.757812 134.308594 200.535156 134.308594 202.25 132.597656 C 203.964844 130.882812 203.964844 128.105469 202.25 126.390625 C 200.535156 124.679688 197.757812 124.679688 196.046875 126.390625 Z M 195.519531 125.867188 C 197.179688 124.207031 197.179688 121.515625 195.519531 119.859375 C 193.863281 118.199219 191.171875 118.199219 189.511719 119.859375 C 187.851562 121.515625 187.851562 124.207031 189.511719 125.867188 C 191.171875 127.527344 193.863281 127.527344 195.519531 125.867188 Z M 188.792969 119.140625 C 190.398438 117.535156 190.398438 114.929688 188.792969 113.324219 C 187.1875 111.714844 184.582031 111.714844 182.976562 113.324219 C 181.371094 114.929688 181.371094 117.535156 182.976562 119.140625 C 184.582031 120.746094 187.1875 120.746094 188.792969 119.140625 Z M 182.0625 112.410156 C 183.617188 110.859375 183.617188 108.339844 182.0625 106.789062 C 180.511719 105.234375 177.992188 105.234375 176.441406 106.789062 C 174.886719 108.339844 174.886719 110.859375 176.441406 112.410156 C 177.992188 113.964844 180.511719 113.964844 182.0625 112.410156 Z M 175.335938 105.683594 C 176.835938 104.183594 176.835938 101.753906 175.335938 100.253906 C 173.835938 98.753906 171.40625 98.753906 169.90625 100.253906 C 168.40625 101.753906 168.40625 104.183594 169.90625 105.683594 C 171.40625 107.183594 173.835938 107.183594 175.335938 105.683594 Z M 163.371094 93.71875 C 161.925781 95.164062 161.925781 97.507812 163.371094 98.953125 C 164.816406 100.398438 167.160156 100.398438 168.605469 98.953125 C 170.050781 97.507812 170.050781 95.164062 168.605469 93.71875 C 167.160156 92.273438 164.816406 92.273438 163.371094 93.71875 Z M 156.835938 87.183594 C 155.445312 88.574219 155.445312 90.832031 156.835938 92.226562 C 158.230469 93.617188 160.484375 93.617188 161.878906 92.226562 C 163.269531 90.832031 163.269531 88.574219 161.878906 87.183594 C 160.484375 85.792969 158.230469 85.792969 156.835938 87.183594 Z M 150.300781 85.496094 C 151.640625 86.835938 153.8125 86.835938 155.148438 85.496094 C 156.488281 84.15625 156.488281 81.988281 155.148438 80.648438 C 153.8125 79.308594 151.640625 79.308594 150.300781 80.648438 C 148.964844 81.988281 148.964844 84.15625 150.300781 85.496094 Z M 143.765625 74.113281 C 142.480469 75.398438 142.480469 77.484375 143.765625 78.769531 C 145.050781 80.054688 147.136719 80.054688 148.421875 78.769531 C 149.707031 77.484375 149.707031 75.398438 148.421875 74.113281 C 147.136719 72.828125 145.050781 72.828125 143.765625 74.113281 Z M 141.691406 72.039062 C 142.925781 70.808594 142.925781 68.8125 141.691406 67.578125 C 140.460938 66.347656 138.464844 66.347656 137.234375 67.578125 C 136 68.8125 136 70.808594 137.234375 72.039062 C 138.464844 73.269531 140.460938 73.269531 141.691406 72.039062 Z M 134.964844 65.3125 C 136.140625 64.132812 136.140625 62.222656 134.964844 61.042969 C 133.785156 59.867188 131.875 59.867188 130.699219 61.042969 C 129.519531 62.222656 129.519531 64.132812 130.699219 65.3125 C 131.875 66.488281 133.785156 66.488281 134.964844 65.3125 Z M 128.234375 58.582031 C 129.359375 57.457031 129.359375 55.632812 128.234375 54.511719 C 127.109375 53.386719 125.289062 53.386719 124.164062 54.511719 C 123.039062 55.632812 123.039062 57.457031 124.164062 58.582031 C 125.289062 59.707031 127.109375 59.707031 128.234375 58.582031 Z M 121.507812 51.851562 C 122.578125 50.78125 122.578125 49.046875 121.507812 47.976562 C 120.4375 46.90625 118.699219 46.90625 117.628906 47.976562 C 116.558594 49.046875 116.558594 50.78125 117.628906 51.851562 C 118.699219 52.925781 120.4375 52.925781 121.507812 51.851562 Z M 114.777344 45.125 C 115.796875 44.109375 115.796875 42.457031 114.777344 41.441406 C 113.761719 40.421875 112.109375 40.421875 111.09375 41.441406 C 110.078125 42.457031 110.078125 44.109375 111.09375 45.125 C 112.109375 46.140625 113.761719 46.140625 114.777344 45.125 Z M 108.050781 38.394531 C 109.011719 37.433594 109.011719 35.871094 108.050781 34.90625 C 107.085938 33.941406 105.523438 33.941406 104.558594 34.90625 C 103.59375 35.871094 103.59375 37.433594 104.558594 38.394531 C 105.523438 39.359375 107.085938 39.359375 108.050781 38.394531 Z M 101.320312 31.667969 C 102.230469 30.757812 102.230469 29.28125 101.320312 28.371094 C 100.410156 27.460938 98.933594 27.460938 98.023438 28.371094 C 97.113281 29.28125 97.113281 30.757812 98.023438 31.667969 C 98.933594 32.578125 100.410156 32.578125 101.320312 31.667969 Z M 94.59375 24.9375 C 95.449219 24.082031 95.449219 22.691406 94.59375 21.835938 C 93.734375 20.980469 92.347656 20.980469 91.488281 21.835938 C 90.632812 22.691406 90.632812 24.082031 91.488281 24.9375 C 92.347656 25.796875 93.734375 25.796875 94.59375 24.9375 Z M 203.015625 119.421875 C 201.304688 121.132812 201.304688 123.914062 203.015625 125.625 C 204.730469 127.339844 207.507812 127.339844 209.222656 125.625 C 210.933594 123.914062 210.933594 121.132812 209.222656 119.421875 C 207.507812 117.707031 204.730469 117.707031 203.015625 119.421875 Z M 202.492188 118.898438 C 204.152344 117.238281 204.152344 114.546875 202.492188 112.886719 C 200.832031 111.226562 198.140625 111.226562 196.480469 112.886719 C 194.820312 114.546875 194.820312 117.238281 196.480469 118.898438 C 198.140625 120.558594 200.832031 120.558594 202.492188 118.898438 Z M 195.765625 112.167969 C 197.371094 110.5625 197.371094 107.957031 195.765625 106.351562 C 194.15625 104.746094 191.554688 104.746094 189.949219 106.351562 C 188.339844 107.957031 188.339844 110.5625 189.949219 112.167969 C 191.554688 113.773438 194.15625 113.773438 195.765625 112.167969 Z M 189.035156 105.441406 C 190.589844 103.886719 190.589844 101.371094 189.035156 99.816406 C 187.484375 98.265625 184.964844 98.265625 183.414062 99.816406 C 181.859375 101.371094 181.859375 103.886719 183.414062 105.441406 C 184.964844 106.992188 187.484375 106.992188 189.035156 105.441406 Z M 176.878906 93.28125 C 175.378906 94.78125 175.378906 97.210938 176.878906 98.710938 C 178.378906 100.210938 180.808594 100.210938 182.308594 98.710938 C 183.804688 97.210938 183.804688 94.78125 182.308594 93.28125 C 180.808594 91.78125 178.378906 91.78125 176.878906 93.28125 Z M 170.34375 86.746094 C 168.898438 88.191406 168.898438 90.535156 170.34375 91.980469 C 171.789062 93.429688 174.132812 93.429688 175.578125 91.980469 C 177.023438 90.535156 177.023438 88.191406 175.578125 86.746094 C 174.132812 85.300781 171.789062 85.300781 170.34375 86.746094 Z M 163.808594 80.210938 C 162.417969 81.605469 162.417969 83.863281 163.808594 85.253906 C 165.199219 86.644531 167.457031 86.644531 168.851562 85.253906 C 170.242188 83.863281 170.242188 81.605469 168.851562 80.210938 C 167.457031 78.820312 165.199219 78.820312 163.808594 80.210938 Z M 157.273438 78.523438 C 158.613281 79.863281 160.78125 79.863281 162.121094 78.523438 C 163.460938 77.1875 163.460938 75.015625 162.121094 73.675781 C 160.78125 72.339844 158.613281 72.339844 157.273438 73.675781 C 155.933594 75.015625 155.933594 77.1875 157.273438 78.523438 Z M 150.738281 67.144531 C 149.453125 68.429688 149.453125 70.511719 150.738281 71.796875 C 152.023438 73.082031 154.109375 73.082031 155.390625 71.796875 C 156.675781 70.511719 156.675781 68.429688 155.390625 67.144531 C 154.109375 65.859375 152.023438 65.859375 150.738281 67.144531 Z M 148.664062 65.066406 C 149.894531 63.835938 149.894531 61.839844 148.664062 60.609375 C 147.433594 59.375 145.4375 59.375 144.203125 60.609375 C 142.972656 61.839844 142.972656 63.835938 144.203125 65.066406 C 145.4375 66.300781 147.433594 66.300781 148.664062 65.066406 Z M 141.933594 58.339844 C 143.113281 57.160156 143.113281 55.25 141.933594 54.074219 C 140.757812 52.894531 138.847656 52.894531 137.667969 54.074219 C 136.492188 55.25 136.492188 57.160156 137.667969 58.339844 C 138.847656 59.515625 140.757812 59.515625 141.933594 58.339844 Z M 135.207031 51.609375 C 136.332031 50.484375 136.332031 48.664062 135.207031 47.539062 C 134.082031 46.414062 132.257812 46.414062 131.132812 47.539062 C 130.011719 48.664062 130.011719 50.484375 131.132812 51.609375 C 132.257812 52.734375 134.082031 52.734375 135.207031 51.609375 Z M 128.476562 44.882812 C 129.550781 43.8125 129.550781 42.074219 128.476562 41.003906 C 127.40625 39.933594 125.671875 39.933594 124.601562 41.003906 C 123.527344 42.074219 123.527344 43.8125 124.601562 44.882812 C 125.671875 45.953125 127.40625 45.953125 128.476562 44.882812 Z M 121.75 38.152344 C 122.765625 37.136719 122.765625 35.488281 121.75 34.46875 C 120.730469 33.453125 119.082031 33.453125 118.066406 34.46875 C 117.046875 35.488281 117.046875 37.136719 118.066406 38.152344 C 119.082031 39.171875 120.730469 39.171875 121.75 38.152344 Z M 115.019531 31.425781 C 115.984375 30.460938 115.984375 28.898438 115.019531 27.933594 C 114.058594 26.96875 112.496094 26.96875 111.53125 27.933594 C 110.566406 28.898438 110.566406 30.460938 111.53125 31.425781 C 112.496094 32.386719 114.058594 32.386719 115.019531 31.425781 Z M 108.292969 24.695312 C 109.203125 23.785156 109.203125 22.308594 108.292969 21.398438 C 107.382812 20.488281 105.90625 20.488281 104.996094 21.398438 C 104.085938 22.308594 104.085938 23.785156 104.996094 24.695312 C 105.90625 25.605469 107.382812 25.605469 108.292969 24.695312 Z M 101.5625 17.96875 C 102.421875 17.109375 102.421875 15.722656 101.5625 14.863281 C 100.707031 14.007812 99.316406 14.007812 98.460938 14.863281 C 97.605469 15.722656 97.605469 17.109375 98.460938 17.96875 C 99.316406 18.824219 100.707031 18.824219 101.5625 17.96875 Z M 209.988281 112.449219 C 208.273438 114.164062 208.273438 116.941406 209.988281 118.652344 C 211.703125 120.367188 214.480469 120.367188 216.191406 118.652344 C 217.90625 116.941406 217.90625 114.164062 216.191406 112.449219 C 214.480469 110.734375 211.703125 110.734375 209.988281 112.449219 Z M 209.464844 111.925781 C 211.125 110.265625 211.125 107.574219 209.464844 105.914062 C 207.804688 104.253906 205.113281 104.253906 203.453125 105.914062 C 201.792969 107.574219 201.792969 110.265625 203.453125 111.925781 C 205.113281 113.585938 207.804688 113.585938 209.464844 111.925781 Z M 202.734375 105.195312 C 204.34375 103.589844 204.34375 100.984375 202.734375 99.378906 C 201.128906 97.773438 198.523438 97.773438 196.917969 99.378906 C 195.3125 100.984375 195.3125 103.589844 196.917969 105.195312 C 198.523438 106.804688 201.128906 106.804688 202.734375 105.195312 Z M 190.382812 92.84375 C 188.832031 94.398438 188.832031 96.914062 190.382812 98.46875 C 191.9375 100.019531 194.453125 100.019531 196.007812 98.46875 C 197.558594 96.914062 197.558594 94.398438 196.007812 92.84375 C 194.453125 91.292969 191.9375 91.292969 190.382812 92.84375 Z M 183.847656 86.308594 C 182.351562 87.808594 182.351562 90.238281 183.847656 91.738281 C 185.347656 93.238281 187.78125 93.238281 189.277344 91.738281 C 190.777344 90.238281 190.777344 87.808594 189.277344 86.308594 C 187.78125 84.8125 185.347656 84.8125 183.847656 86.308594 Z M 177.316406 79.777344 C 175.867188 81.222656 175.867188 83.566406 177.316406 85.011719 C 178.761719 86.457031 181.105469 86.457031 182.550781 85.011719 C 183.996094 83.566406 183.996094 81.222656 182.550781 79.777344 C 181.105469 78.328125 178.761719 78.328125 177.316406 79.777344 Z M 170.78125 73.242188 C 169.386719 74.632812 169.386719 76.890625 170.78125 78.28125 C 172.171875 79.675781 174.429688 79.675781 175.820312 78.28125 C 177.214844 76.890625 177.214844 74.632812 175.820312 73.242188 C 174.429688 71.847656 172.171875 71.847656 170.78125 73.242188 Z M 164.246094 66.707031 C 162.90625 68.042969 162.90625 70.214844 164.246094 71.554688 C 165.582031 72.890625 167.753906 72.890625 169.09375 71.554688 C 170.429688 70.214844 170.429688 68.042969 169.09375 66.707031 C 167.753906 65.367188 165.582031 65.367188 164.246094 66.707031 Z M 157.710938 60.171875 C 156.425781 61.457031 156.425781 63.539062 157.710938 64.824219 C 158.996094 66.109375 161.078125 66.109375 162.363281 64.824219 C 163.648438 63.539062 163.648438 61.457031 162.363281 60.171875 C 161.078125 58.886719 158.996094 58.886719 157.710938 60.171875 Z M 155.636719 58.097656 C 156.867188 56.863281 156.867188 54.867188 155.636719 53.636719 C 154.402344 52.40625 152.40625 52.40625 151.175781 53.636719 C 149.945312 54.867188 149.945312 56.863281 151.175781 58.097656 C 152.40625 59.328125 154.402344 59.328125 155.636719 58.097656 Z M 148.90625 51.367188 C 150.085938 50.191406 150.085938 48.28125 148.90625 47.101562 C 147.730469 45.925781 145.820312 45.925781 144.640625 47.101562 C 143.464844 48.28125 143.464844 50.191406 144.640625 51.367188 C 145.820312 52.546875 147.730469 52.546875 148.90625 51.367188 Z M 142.179688 44.640625 C 143.300781 43.515625 143.300781 41.691406 142.179688 40.566406 C 141.054688 39.441406 139.230469 39.441406 138.105469 40.566406 C 136.980469 41.691406 136.980469 43.515625 138.105469 44.640625 C 139.230469 45.761719 141.054688 45.761719 142.179688 44.640625 Z M 135.449219 37.910156 C 136.519531 36.839844 136.519531 35.101562 135.449219 34.03125 C 134.378906 32.960938 132.640625 32.960938 131.570312 34.03125 C 130.5 35.101562 130.5 36.839844 131.570312 37.910156 C 132.640625 38.980469 134.378906 38.980469 135.449219 37.910156 Z M 128.722656 31.183594 C 129.738281 30.164062 129.738281 28.515625 128.722656 27.496094 C 127.703125 26.480469 126.054688 26.480469 125.035156 27.496094 C 124.019531 28.515625 124.019531 30.164062 125.035156 31.183594 C 126.054688 32.199219 127.703125 32.199219 128.722656 31.183594 Z M 121.992188 24.453125 C 122.957031 23.488281 122.957031 21.925781 121.992188 20.964844 C 121.027344 20 119.464844 20 118.503906 20.964844 C 117.539062 21.925781 117.539062 23.488281 118.503906 24.453125 C 119.464844 25.417969 121.027344 25.417969 121.992188 24.453125 Z M 115.261719 17.722656 C 116.175781 16.8125 116.175781 15.339844 115.261719 14.429688 C 114.351562 13.519531 112.878906 13.519531 111.96875 14.429688 C 111.058594 15.339844 111.058594 16.8125 111.96875 17.722656 C 112.878906 18.632812 114.351562 18.632812 115.261719 17.722656 Z M 108.535156 10.996094 C 109.390625 10.140625 109.390625 8.75 108.535156 7.894531 C 107.679688 7.035156 106.289062 7.035156 105.433594 7.894531 C 104.574219 8.75 104.574219 10.140625 105.433594 10.996094 C 106.289062 11.851562 107.679688 11.851562 108.535156 10.996094 Z M 223.164062 105.476562 C 221.453125 103.765625 218.671875 103.765625 216.960938 105.476562 C 215.246094 107.191406 215.246094 109.96875 216.960938 111.683594 C 218.671875 113.394531 221.453125 113.394531 223.164062 111.683594 C 224.878906 109.96875 224.878906 107.191406 223.164062 105.476562 Z M 210.425781 104.953125 C 212.085938 106.613281 214.777344 106.613281 216.4375 104.953125 C 218.097656 103.292969 218.097656 100.601562 216.4375 98.941406 C 214.777344 97.28125 212.085938 97.28125 210.425781 98.941406 C 208.765625 100.601562 208.765625 103.292969 210.425781 104.953125 Z M 203.890625 98.226562 C 205.496094 99.832031 208.101562 99.832031 209.707031 98.226562 C 211.3125 96.617188 211.3125 94.015625 209.707031 92.40625 C 208.101562 90.800781 205.496094 90.800781 203.890625 92.40625 C 202.285156 94.015625 202.285156 96.617188 203.890625 98.226562 Z M 197.355469 91.496094 C 198.910156 93.050781 201.425781 93.050781 202.980469 91.496094 C 204.53125 89.945312 204.53125 87.425781 202.980469 85.875 C 201.425781 84.320312 198.910156 84.320312 197.355469 85.875 C 195.804688 87.425781 195.804688 89.945312 197.355469 91.496094 Z M 190.820312 84.769531 C 192.320312 86.265625 194.75 86.265625 196.25 84.769531 C 197.75 83.269531 197.75 80.839844 196.25 79.339844 C 194.75 77.839844 192.320312 77.839844 190.820312 79.339844 C 189.320312 80.839844 189.320312 83.269531 190.820312 84.769531 Z M 184.285156 78.039062 C 185.730469 79.484375 188.074219 79.484375 189.523438 78.039062 C 190.96875 76.59375 190.96875 74.25 189.523438 72.804688 C 188.074219 71.359375 185.730469 71.359375 184.285156 72.804688 C 182.839844 74.25 182.839844 76.59375 184.285156 78.039062 Z M 177.75 71.3125 C 179.144531 72.703125 181.402344 72.703125 182.792969 71.3125 C 184.183594 69.917969 184.183594 67.660156 182.792969 66.269531 C 181.402344 64.878906 179.144531 64.878906 177.75 66.269531 C 176.359375 67.660156 176.359375 69.917969 177.75 71.3125 Z M 171.214844 64.582031 C 172.554688 65.921875 174.726562 65.921875 176.0625 64.582031 C 177.402344 63.242188 177.402344 61.074219 176.0625 59.734375 C 174.726562 58.394531 172.554688 58.394531 171.214844 59.734375 C 169.878906 61.074219 169.878906 63.242188 171.214844 64.582031 Z M 169.335938 57.851562 C 170.621094 56.566406 170.621094 54.484375 169.335938 53.199219 C 168.050781 51.914062 165.96875 51.914062 164.683594 53.199219 C 163.398438 54.484375 163.398438 56.566406 164.683594 57.851562 C 165.96875 59.136719 168.050781 59.136719 169.335938 57.851562 Z M 162.605469 51.125 C 163.839844 49.894531 163.839844 47.898438 162.605469 46.664062 C 161.375 45.433594 159.378906 45.433594 158.148438 46.664062 C 156.914062 47.898438 156.914062 49.894531 158.148438 51.125 C 159.378906 52.355469 161.375 52.355469 162.605469 51.125 Z M 155.878906 44.394531 C 157.054688 43.21875 157.054688 41.308594 155.878906 40.128906 C 154.699219 38.953125 152.789062 38.953125 151.613281 40.128906 C 150.433594 41.308594 150.433594 43.21875 151.613281 44.394531 C 152.789062 45.574219 154.699219 45.574219 155.878906 44.394531 Z M 149.148438 37.667969 C 150.273438 36.542969 150.273438 34.71875 149.148438 33.59375 C 148.023438 32.472656 146.203125 32.472656 145.078125 33.59375 C 143.953125 34.71875 143.953125 36.542969 145.078125 37.667969 C 146.203125 38.792969 148.023438 38.792969 149.148438 37.667969 Z M 142.421875 30.9375 C 143.492188 29.867188 143.492188 28.132812 142.421875 27.0625 C 141.351562 25.988281 139.613281 25.988281 138.542969 27.0625 C 137.472656 28.132812 137.472656 29.867188 138.542969 30.9375 C 139.613281 32.007812 141.351562 32.007812 142.421875 30.9375 Z M 135.691406 24.210938 C 136.710938 23.191406 136.710938 21.542969 135.691406 20.527344 C 134.675781 19.507812 133.027344 19.507812 132.007812 20.527344 C 130.992188 21.542969 130.992188 23.191406 132.007812 24.210938 C 133.027344 25.226562 134.675781 25.226562 135.691406 24.210938 Z M 128.964844 17.480469 C 129.925781 16.519531 129.925781 14.957031 128.964844 13.992188 C 128 13.027344 126.4375 13.027344 125.472656 13.992188 C 124.511719 14.957031 124.511719 16.519531 125.472656 17.480469 C 126.4375 18.445312 128 18.445312 128.964844 17.480469 Z M 122.234375 10.753906 C 123.144531 9.84375 123.144531 8.367188 122.234375 7.457031 C 121.324219 6.546875 119.847656 6.546875 118.9375 7.457031 C 118.027344 8.367188 118.027344 9.84375 118.9375 10.753906 C 119.847656 11.664062 121.324219 11.664062 122.234375 10.753906 Z M 115.507812 4.023438 C 116.363281 3.167969 116.363281 1.777344 115.507812 0.921875 C 114.648438 0.0664062 113.261719 0.0664062 112.402344 0.921875 C 111.546875 1.777344 111.546875 3.167969 112.402344 4.023438 C 113.261719 4.882812 114.648438 4.882812 115.507812 4.023438 Z M 115.507812 4.023438 " fill-opacity="1" fill-rule="nonzero"/></g></svg>